if (_typeface_js && _typeface_js.loadFace) _typeface_js.loadFace({"glyphs":{"0":{"ha":1074,"x_min":131,"x_max":943,"o":"m 131 547 l 131 169 q 138 87 131 119 q 165 35 146 54 q 215 8 183 15 q 294 0 247 0 l 779 0 q 858 8 826 0 q 909 35 890 15 q 935 87 928 54 q 943 169 943 119 l 943 547 q 935 630 943 597 q 909 682 928 663 q 858 709 890 701 q 779 717 826 717 l 294 717 q 215 709 247 717 q 165 682 183 701 q 138 630 146 663 q 131 547 131 597 m 281 129 l 281 594 l 793 594 l 793 129 l 281 129 z "},"1":{"ha":1074,"x_min":339,"x_max":643,"o":"m 492 0 l 643 0 l 643 722 l 339 676 l 339 581 l 492 581 l 492 0 z "},"2":{"ha":1074,"x_min":158,"x_max":925,"o":"m 194 576 l 194 483 l 336 447 l 336 594 l 744 594 l 744 501 l 249 196 q 199 160 217 176 q 172 129 181 144 q 160 99 163 114 q 158 65 158 83 l 158 0 l 761 0 q 838 6 807 0 q 889 27 869 11 q 917 70 908 43 q 925 140 925 97 l 925 197 l 793 235 l 793 129 l 376 129 l 797 385 q 840 413 822 400 q 869 442 858 426 q 885 478 881 457 q 890 531 890 499 l 890 576 q 882 647 890 619 q 854 689 874 674 q 803 710 835 704 q 726 717 772 717 l 358 717 q 281 710 313 717 q 231 689 250 704 q 203 647 211 674 q 194 576 194 619 z "},"3":{"ha":1074,"x_min":153,"x_max":907,"o":"m 317 0 l 733 0 q 818 8 785 0 q 872 35 851 17 q 899 83 892 54 q 907 154 907 113 l 907 229 q 867 332 907 297 q 740 375 826 367 q 849 417 818 388 q 879 511 879 447 l 879 576 q 871 647 879 619 q 843 689 863 674 q 792 710 824 704 q 715 717 761 717 l 328 717 q 251 710 282 717 q 200 689 219 704 q 172 647 181 674 q 164 576 164 619 l 164 532 l 306 506 l 306 594 l 660 594 q 715 581 701 594 q 728 529 728 568 l 728 493 q 715 441 728 454 q 660 428 701 428 l 444 428 l 444 311 l 686 311 q 742 298 728 311 q 756 246 756 285 l 756 193 q 742 142 756 154 q 686 129 728 129 l 300 129 l 300 229 l 153 199 l 153 140 q 161 70 153 97 q 189 27 169 43 q 240 6 208 11 q 317 0 271 0 z "},"4":{"ha":1074,"x_min":113,"x_max":981,"o":"m 656 278 l 264 278 l 656 599 l 656 278 m 656 -8 l 807 -8 l 807 158 l 981 158 l 981 278 l 807 278 l 807 725 l 650 725 l 113 278 l 113 158 l 656 158 l 656 -8 z "},"5":{"ha":1074,"x_min":181,"x_max":957,"o":"m 181 319 q 397 342 301 335 q 568 349 493 349 q 745 325 688 349 q 803 238 803 301 q 744 146 803 171 q 558 121 686 121 q 373 131 467 121 q 181 158 279 140 l 217 19 q 360 -2 275 6 q 563 -10 446 -10 q 860 45 764 -10 q 957 231 957 100 q 601 474 957 474 q 466 469 538 474 q 311 456 394 464 l 328 594 l 828 594 l 840 717 l 221 717 l 181 319 z "},"6":{"ha":1074,"x_min":154,"x_max":939,"o":"m 319 432 q 378 525 340 489 q 474 581 417 561 q 610 609 532 601 q 788 617 688 617 l 833 617 l 735 732 q 709 734 722 733 q 683 735 696 735 q 458 707 557 735 q 292 625 360 679 q 190 493 225 571 q 154 315 154 415 l 154 221 q 166 115 154 157 q 206 47 178 72 q 278 10 233 21 q 390 0 324 0 l 693 0 q 879 42 819 0 q 939 175 939 83 l 939 272 q 922 363 939 326 q 869 419 906 399 q 776 449 833 440 q 636 457 718 457 q 474 450 553 457 q 319 432 394 443 m 310 324 q 628 340 474 340 q 752 324 718 340 q 786 254 786 307 l 786 215 q 780 175 786 192 q 759 148 774 158 q 719 133 744 138 q 656 129 694 129 l 456 129 q 374 135 404 129 q 330 158 344 142 q 311 205 315 175 q 307 282 307 235 q 307 300 307 290 q 310 324 307 311 z "},"7":{"ha":1074,"x_min":147,"x_max":943,"o":"m 386 -12 l 568 -12 l 943 601 l 943 717 l 147 717 l 147 467 l 299 440 l 299 594 l 772 594 l 386 -12 z "},"8":{"ha":1074,"x_min":133,"x_max":940,"o":"m 719 311 q 774 298 761 311 q 788 246 788 285 l 788 193 q 774 142 788 154 q 719 129 761 129 l 353 129 q 298 141 311 129 q 285 193 285 153 l 285 246 q 298 298 285 285 q 353 311 311 311 l 719 311 m 704 594 q 759 581 746 594 q 772 529 772 568 l 772 493 q 759 441 772 454 q 704 428 746 428 l 369 428 q 314 441 328 428 q 300 493 300 454 l 300 529 q 314 581 300 568 q 369 594 328 594 l 704 594 m 760 717 l 313 717 q 235 710 267 717 q 185 689 204 704 q 157 647 165 674 q 149 576 149 619 l 149 511 q 180 418 149 449 q 286 372 211 388 q 171 330 208 364 q 133 229 133 296 l 133 154 q 141 83 133 113 q 169 35 149 54 q 222 8 189 17 q 307 0 256 0 l 765 0 q 851 8 817 0 q 904 35 885 17 q 932 83 924 54 q 940 154 940 113 l 940 229 q 903 330 940 296 q 788 372 865 364 q 893 418 863 388 q 924 511 924 449 l 924 576 q 915 647 924 619 q 888 689 907 674 q 837 710 868 704 q 760 717 806 717 z "},"9":{"ha":1074,"x_min":149,"x_max":932,"o":"m 776 394 q 604 381 683 385 q 460 376 525 376 q 383 380 414 376 q 334 393 353 383 q 308 420 315 403 q 300 465 300 438 l 300 506 q 306 547 300 531 q 328 574 313 564 q 368 590 343 585 q 432 594 393 594 l 631 594 q 712 588 682 594 q 757 565 742 582 q 776 517 772 547 q 781 438 781 486 q 776 394 781 419 m 768 285 q 709 192 747 228 q 613 135 671 156 q 477 108 556 115 q 299 100 399 100 l 253 100 l 351 -15 q 376 -17 364 -17 q 403 -17 390 -17 q 627 11 529 -17 q 793 92 725 39 q 897 224 861 146 q 932 401 932 301 l 932 496 q 920 602 932 560 q 881 670 908 644 q 808 706 853 696 q 696 717 763 717 l 393 717 q 208 675 267 717 q 149 542 149 633 l 149 446 q 165 356 149 392 q 218 299 182 319 q 312 269 254 278 q 451 261 369 261 q 614 267 535 261 q 768 285 693 274 z "}," ":{"ha":538,"x_min":0,"x_max":0,"o":""},"\u0005":{"ha":694,"x_min":144,"x_max":547,"o":"m 144 881 q 201 731 151 779 q 347 682 250 682 q 492 731 444 682 q 547 881 540 779 l 467 881 q 435 805 464 828 q 347 782 407 782 q 258 805 288 782 q 226 881 229 828 l 144 881 z "},"\u0006":{"ha":694,"x_min":275,"x_max":421,"o":"m 275 693 l 421 693 l 421 856 l 275 856 l 275 693 z "},"\b":{"ha":694,"x_min":174,"x_max":522,"o":"m 174 825 q 187 756 174 788 q 224 700 200 724 q 279 663 247 676 q 347 650 311 650 q 415 663 383 650 q 471 700 447 676 q 508 756 494 724 q 522 825 522 788 q 508 893 522 861 q 471 949 494 925 q 415 986 447 972 q 347 1000 383 1000 q 279 986 311 1000 q 224 949 247 972 q 187 893 200 925 q 174 825 174 861 m 261 825 q 287 886 261 861 q 349 911 313 911 q 410 886 385 911 q 435 825 435 861 q 410 763 435 789 q 349 738 385 738 q 287 763 313 738 q 261 825 261 789 z "},"\n":{"ha":694,"x_min":206,"x_max":626,"o":"m 276 664 l 424 899 l 296 899 l 206 664 l 276 664 m 383 664 l 454 664 l 626 899 l 493 899 l 383 664 z "},"\u000b":{"ha":694,"x_min":229,"x_max":450,"o":"m 415 0 l 356 0 q 261 -92 293 -49 q 229 -182 229 -136 q 267 -275 229 -246 q 385 -304 306 -304 l 450 -304 l 450 -199 l 388 -199 q 341 -186 354 -199 q 328 -144 328 -174 q 349 -72 328 -106 q 415 0 371 -37 z "},"\f":{"ha":694,"x_min":146,"x_max":549,"o":"m 146 899 l 274 663 l 421 663 l 549 899 l 460 899 l 347 757 l 233 899 l 146 899 z "},"\r":{"ha":404,"x_min":131,"x_max":274,"o":"m 131 0 l 274 0 l 274 588 l 131 588 l 131 0 z "},"\u0019":{"ha":232,"x_min":-232,"x_max":463,"o":"m 463 739 l 374 739 l -232 -22 l -142 -22 l 463 739 z "},"\u001a":{"ha":1168,"x_min":131,"x_max":1038,"o":"m 131 0 l 275 0 l 275 219 l 533 219 l 533 329 l 275 329 l 275 482 l 754 482 l 754 588 l 131 588 l 131 0 m 894 0 l 1038 0 l 1038 588 l 894 588 l 894 0 z "},"\u001b":{"ha":1531,"x_min":131,"x_max":1500,"o":"m 131 0 l 275 0 l 275 219 l 533 219 l 533 329 l 275 329 l 275 482 l 754 482 l 754 588 l 131 588 l 131 0 m 894 0 l 1500 0 l 1500 110 l 1039 110 l 1039 588 l 894 588 l 894 0 z "},"\u001c":{"ha":949,"x_min":75,"x_max":888,"o":"m 183 0 l 888 0 l 888 135 l 350 135 l 350 296 l 569 449 l 569 596 l 350 443 l 350 717 l 183 717 l 183 343 l 75 268 l 75 124 l 183 199 l 183 0 z "},"\u001d":{"ha":767,"x_min":38,"x_max":736,"o":"m 131 0 l 736 0 l 736 110 l 275 110 l 275 239 l 474 378 l 474 500 l 275 360 l 275 588 l 131 588 l 131 275 l 38 210 l 38 90 l 131 157 l 131 0 z "},"\u001e":{"ha":947,"x_min":85,"x_max":854,"o":"m 85 0 l 854 0 l 854 135 l 346 135 l 854 646 l 854 717 l 135 717 l 135 589 l 586 589 l 85 78 l 85 0 m 272 1028 l 400 792 l 547 792 l 675 1028 l 586 1028 l 474 886 l 360 1028 l 272 1028 z "},"\u001f":{"ha":856,"x_min":97,"x_max":760,"o":"m 97 0 l 760 0 l 760 108 l 321 108 l 760 529 l 760 588 l 140 588 l 140 482 l 528 482 l 97 64 l 97 0 m 226 899 l 354 663 l 501 663 l 629 899 l 540 899 l 428 757 l 314 899 l 226 899 z "},"!":{"ha":533,"x_min":157,"x_max":372,"o":"m 210 292 l 321 292 l 372 717 l 158 717 l 210 292 m 314 199 l 215 199 q 169 192 181 199 q 157 151 157 186 l 157 47 q 163 11 157 22 q 192 0 169 0 l 215 0 l 314 0 q 342 1 331 0 q 360 6 354 1 q 369 19 367 10 q 372 47 372 29 l 372 151 q 366 188 372 176 q 338 199 360 199 l 314 199 z "},"\"":{"ha":417,"x_min":61,"x_max":356,"o":"m 156 974 l 61 974 l 61 597 l 156 597 l 156 974 m 356 974 l 261 974 l 261 597 l 356 597 l 356 974 z "},"#":{"ha":1068,"x_min":60,"x_max":1008,"o":"m 626 989 l 514 989 l 404 681 l 179 681 l 144 582 l 368 582 l 306 403 l 96 403 l 60 304 l 269 304 l 161 -3 l 274 -3 l 383 304 l 558 304 l 449 -3 l 561 -3 l 671 304 l 889 304 l 924 403 l 706 403 l 768 582 l 974 582 l 1008 681 l 804 681 l 913 989 l 801 989 l 690 681 l 517 681 l 626 989 m 657 582 l 594 403 l 418 403 l 481 582 l 657 582 z "},"$":{"ha":1074,"x_min":135,"x_max":939,"o":"m 794 614 l 794 515 l 925 544 l 925 576 q 882 687 925 657 q 747 717 839 717 l 604 717 l 604 858 l 489 858 l 489 717 l 340 717 q 256 709 290 717 q 201 683 222 701 q 172 631 181 664 q 163 547 163 597 l 163 468 q 172 385 163 418 q 201 333 181 351 q 256 306 222 314 q 340 299 290 299 l 489 299 l 489 108 l 274 108 l 274 204 l 135 181 l 135 150 q 145 76 135 106 q 177 31 156 47 q 233 7 199 14 q 313 0 267 0 l 489 0 l 489 -181 l 604 -181 l 604 0 l 760 0 q 844 8 810 0 q 900 34 879 15 q 930 86 921 53 q 939 169 939 119 l 939 254 q 930 338 939 304 q 900 390 921 371 q 844 416 879 408 q 760 424 810 424 l 604 424 l 604 614 l 794 614 m 489 424 l 289 424 l 289 614 l 489 614 l 489 424 m 604 108 l 604 299 l 811 299 l 811 108 l 604 108 z "},"%":{"ha":1110,"x_min":61,"x_max":1047,"o":"m 61 528 q 78 444 61 483 q 125 376 96 406 q 193 330 154 347 q 275 313 232 313 q 356 330 318 313 q 424 376 394 347 q 470 444 453 406 q 488 528 488 483 q 471 610 488 572 q 426 677 454 649 q 358 722 397 706 q 275 739 319 739 q 192 723 231 739 q 124 678 153 707 q 78 611 94 650 q 61 528 61 572 m 156 525 q 190 609 156 574 q 274 644 225 644 q 320 635 299 644 q 358 609 342 625 q 383 572 374 593 q 393 525 393 550 q 358 442 393 476 q 274 407 324 407 q 227 417 249 407 q 190 442 206 426 q 165 480 174 458 q 156 525 156 501 m 715 190 q 750 274 715 239 q 833 310 785 310 q 880 300 858 310 q 917 274 901 290 q 943 237 933 258 q 953 190 953 215 q 918 107 953 142 q 833 72 883 72 q 787 82 808 72 q 749 108 765 92 q 724 145 733 124 q 715 190 715 167 m 621 192 q 638 108 621 147 q 683 40 654 69 q 751 -6 713 11 q 833 -22 790 -22 q 915 -6 876 -22 q 983 40 954 11 q 1030 108 1013 69 q 1047 192 1047 147 q 1031 275 1047 236 q 985 342 1014 314 q 917 388 956 371 q 833 404 878 404 q 750 388 789 404 q 683 342 711 371 q 638 275 654 314 q 621 192 621 236 m 901 739 l 811 739 l 207 -22 l 297 -22 l 901 739 z "},"&":{"ha":1144,"x_min":125,"x_max":1094,"o":"m 304 0 l 560 0 q 599 1 582 0 q 632 7 617 3 q 663 19 647 11 q 694 43 678 28 l 758 100 l 876 0 l 1094 0 l 868 190 l 1033 328 l 939 410 l 772 271 l 435 551 l 435 603 l 669 603 l 669 507 l 799 529 l 799 572 q 789 644 799 615 q 758 688 779 672 q 703 710 738 704 q 621 717 669 717 l 476 717 q 342 690 385 717 q 299 586 299 663 l 299 546 q 313 489 299 514 q 360 438 328 464 l 214 350 q 174 324 190 336 q 146 297 157 311 q 130 263 135 282 q 125 217 125 244 l 125 169 q 134 86 125 119 q 164 34 143 53 q 219 8 185 15 q 304 0 254 0 m 265 125 l 265 247 l 449 361 l 664 182 l 597 125 l 265 125 z "},"'":{"ha":215,"x_min":61,"x_max":156,"o":"m 156 974 l 61 974 l 61 597 l 156 597 l 156 974 z "},"(":{"ha":460,"x_min":115,"x_max":383,"o":"m 235 744 q 115 358 115 560 q 235 -28 115 157 l 383 -28 q 249 358 249 174 q 383 744 249 543 l 235 744 z "},")":{"ha":460,"x_min":76,"x_max":346,"o":"m 225 744 l 76 744 q 211 358 211 543 q 76 -28 211 174 l 225 -28 q 346 358 346 160 q 225 744 346 557 z "},"*":{"ha":694,"x_min":119,"x_max":575,"o":"m 347 446 l 439 279 l 519 339 l 389 478 l 575 514 l 543 608 l 372 526 l 393 717 l 301 717 l 321 526 l 150 608 l 119 514 l 304 478 l 174 339 l 256 279 l 347 446 z "},"+":{"ha":1157,"x_min":172,"x_max":985,"o":"m 626 828 l 531 828 l 531 461 l 172 461 l 172 367 l 531 367 l 531 0 l 626 0 l 626 367 l 985 367 l 985 461 l 626 461 l 626 828 z "},",":{"ha":460,"x_min":117,"x_max":336,"o":"m 279 215 l 179 215 q 150 215 161 215 q 133 209 139 214 q 124 194 126 204 q 122 164 122 183 l 122 78 q 128 39 122 51 q 156 26 135 26 l 179 26 l 235 26 l 117 -185 l 199 -185 l 336 21 l 336 164 q 330 203 336 190 q 303 215 324 215 l 279 215 z "},"-":{"ha":458,"x_min":67,"x_max":390,"o":"m 67 299 l 390 299 l 390 442 l 67 442 l 67 299 z "},".":{"ha":460,"x_min":122,"x_max":338,"o":"m 279 215 l 181 215 q 151 215 163 215 q 134 209 140 214 q 125 194 128 204 q 122 164 122 183 l 122 51 q 128 13 122 25 q 156 0 135 0 l 181 0 l 279 0 q 308 1 297 0 q 326 6 319 1 q 335 22 332 11 q 338 51 338 32 l 338 164 q 331 203 338 190 q 304 215 325 215 l 279 215 z "},"/":{"ha":386,"x_min":-33,"x_max":419,"o":"m -33 -22 l 56 -22 l 419 739 l 328 739 l -33 -22 z "},":":{"ha":460,"x_min":122,"x_max":338,"o":"m 279 215 l 181 215 q 151 215 163 215 q 134 209 140 214 q 125 194 128 204 q 122 164 122 183 l 122 51 q 128 13 122 25 q 156 0 135 0 l 181 0 l 279 0 q 308 1 297 0 q 326 6 319 1 q 335 22 332 11 q 338 51 338 32 l 338 164 q 331 203 338 190 q 304 215 325 215 l 279 215 m 279 589 l 181 589 q 151 588 163 589 q 134 583 140 588 q 125 567 128 578 q 122 538 122 557 l 122 425 q 128 386 122 399 q 156 374 135 374 l 181 374 l 279 374 q 308 374 297 374 q 326 380 319 375 q 335 395 332 385 q 338 425 338 406 l 338 538 q 331 576 338 564 q 304 589 325 589 l 279 589 z "},";":{"ha":460,"x_min":117,"x_max":336,"o":"m 279 215 l 179 215 q 150 215 161 215 q 133 209 139 214 q 124 194 126 204 q 122 164 122 183 l 122 78 q 128 39 122 51 q 156 26 135 26 l 179 26 l 235 26 l 117 -185 l 199 -185 l 336 21 l 336 164 q 330 203 336 190 q 303 215 324 215 l 279 215 m 279 589 l 179 589 q 150 588 161 589 q 133 583 139 588 q 124 567 126 578 q 122 538 122 557 l 122 425 q 128 386 122 399 q 156 374 135 374 l 179 374 l 279 374 q 308 374 297 374 q 326 380 319 375 q 334 395 332 385 q 336 425 336 406 l 336 538 q 330 576 336 564 q 303 589 324 589 l 279 589 z "},"<":{"ha":1157,"x_min":179,"x_max":978,"o":"m 978 682 l 978 786 l 179 458 l 179 371 l 978 43 l 978 147 l 321 414 l 978 682 z "},"=":{"ha":1157,"x_min":172,"x_max":985,"o":"m 985 596 l 172 596 l 172 501 l 985 501 l 985 596 m 985 326 l 172 326 l 172 232 l 985 232 l 985 326 z "},">":{"ha":1157,"x_min":179,"x_max":978,"o":"m 978 458 l 179 786 l 179 682 l 838 414 l 179 147 l 179 43 l 978 371 l 978 458 z "},"?":{"ha":919,"x_min":147,"x_max":753,"o":"m 367 290 l 510 290 l 510 328 l 753 469 l 753 583 q 710 685 753 653 q 581 717 668 717 l 297 717 q 147 569 147 717 l 147 531 l 288 508 l 288 599 l 607 599 l 607 536 l 367 390 l 367 290 m 486 199 l 386 199 q 340 192 351 199 q 329 151 329 186 l 329 47 q 335 11 329 22 q 364 0 342 0 l 386 0 l 486 0 q 514 1 503 0 q 531 6 525 1 q 540 19 538 10 q 543 47 543 29 l 543 151 q 538 188 543 176 q 510 199 532 199 l 486 199 z "},"@":{"ha":1389,"x_min":72,"x_max":1318,"o":"m 807 322 q 735 200 788 246 q 618 154 683 154 q 524 192 557 154 q 492 303 492 231 q 508 422 492 367 q 555 519 525 478 q 625 583 585 560 q 713 607 665 607 q 801 575 765 607 q 847 482 836 543 l 807 322 m 871 579 q 707 681 822 681 q 580 652 639 681 q 477 574 521 624 q 408 455 433 524 q 383 306 383 386 q 438 138 383 196 q 596 81 492 81 q 800 199 726 81 l 800 186 q 936 79 800 79 q 1048 99 993 79 q 1150 156 1103 118 q 1276 315 1233 221 q 1318 529 1318 410 q 1272 722 1318 633 q 1139 878 1226 810 q 972 963 1069 931 q 757 994 874 994 q 447 932 585 994 q 210 749 308 869 q 107 566 142 665 q 72 354 72 467 q 279 -72 72 88 q 706 -199 446 -199 q 1156 -47 954 -199 l 1118 8 q 920 -87 1028 -54 q 697 -121 813 -121 q 499 -92 590 -121 q 342 -12 408 -62 q 211 144 253 56 q 169 353 169 232 q 240 631 169 506 q 442 833 311 756 q 751 911 572 911 q 944 882 858 911 q 1092 801 1031 853 q 1186 676 1153 749 q 1219 517 1219 603 q 1188 356 1219 431 q 1104 232 1157 282 q 1031 180 1068 197 q 963 163 994 163 q 894 226 894 163 q 900 267 894 244 l 999 657 l 910 657 l 871 579 z "},"A":{"ha":1071,"x_min":46,"x_max":1024,"o":"m 46 0 l 213 0 l 296 157 l 750 157 l 836 0 l 1024 0 l 613 717 l 451 717 l 46 0 m 367 286 l 526 578 l 681 286 l 367 286 z "},"B":{"ha":1103,"x_min":183,"x_max":964,"o":"m 183 0 l 753 0 q 964 140 964 0 l 964 232 q 931 326 964 290 q 835 369 897 361 q 926 407 894 376 q 958 490 958 438 l 958 578 q 919 685 958 653 q 797 717 881 717 l 183 717 l 183 0 m 728 311 q 790 299 771 311 q 808 247 808 288 l 808 193 q 790 141 808 153 q 728 129 771 129 l 347 129 l 347 311 l 728 311 m 728 600 q 785 590 767 600 q 804 549 804 581 l 804 481 q 785 439 804 449 q 728 429 767 429 l 347 429 l 347 600 l 728 600 z "},"C":{"ha":1113,"x_min":168,"x_max":951,"o":"m 785 589 l 785 453 l 951 479 l 951 547 q 942 631 951 597 q 913 683 933 664 q 858 709 892 701 q 774 717 824 717 l 346 717 q 262 709 296 717 q 207 683 228 701 q 177 631 186 664 q 168 547 168 597 l 168 169 q 177 86 168 119 q 207 34 186 53 q 262 8 228 15 q 346 0 296 0 l 774 0 q 858 8 824 0 q 913 34 892 15 q 942 86 933 53 q 951 169 951 119 l 951 254 l 785 289 l 785 135 l 335 135 l 335 589 l 785 589 z "},"D":{"ha":1176,"x_min":183,"x_max":1054,"o":"m 183 0 l 601 0 q 770 12 697 0 q 896 56 843 24 q 1013 181 971 101 q 1054 363 1054 261 q 951 624 1054 531 q 644 717 847 717 l 183 717 l 183 0 m 350 135 l 350 589 l 646 589 q 823 532 764 589 q 882 365 882 475 q 862 254 882 299 q 802 183 842 210 q 703 146 763 157 q 565 135 644 135 l 350 135 z "},"E":{"ha":1049,"x_min":183,"x_max":924,"o":"m 183 0 l 924 0 l 924 135 l 350 135 l 350 313 l 681 313 l 681 435 l 350 435 l 350 594 l 917 594 l 917 717 l 183 717 l 183 0 z "},"F":{"ha":932,"x_min":183,"x_max":908,"o":"m 183 0 l 350 0 l 350 272 l 651 272 l 651 403 l 350 403 l 350 592 l 908 592 l 908 717 l 183 717 l 183 0 z "},"G":{"ha":1188,"x_min":168,"x_max":1018,"o":"m 856 589 l 856 508 l 1018 538 l 1018 554 q 1008 634 1018 603 q 978 684 999 665 q 923 710 957 703 q 840 717 889 717 l 346 717 q 262 709 296 717 q 207 683 228 701 q 177 631 186 664 q 168 547 168 597 l 168 169 q 177 86 168 119 q 207 34 186 53 q 262 8 228 15 q 346 0 296 0 l 840 0 q 924 8 890 0 q 979 34 958 15 q 1009 86 1000 53 q 1018 169 1018 119 l 1018 417 l 583 417 l 583 294 l 856 294 l 856 135 l 335 135 l 335 589 l 856 589 z "},"H":{"ha":1222,"x_min":183,"x_max":1039,"o":"m 183 0 l 350 0 l 350 308 l 871 308 l 871 0 l 1039 0 l 1039 717 l 871 717 l 871 439 l 350 439 l 350 717 l 183 717 l 183 0 z "},"I":{"ha":533,"x_min":183,"x_max":350,"o":"m 183 0 l 350 0 l 350 717 l 183 717 l 183 0 z "},"J":{"ha":926,"x_min":110,"x_max":772,"o":"m 288 0 l 594 0 q 678 8 644 0 q 733 34 713 15 q 763 86 754 53 q 772 169 772 119 l 772 717 l 606 717 l 606 135 l 278 135 l 278 350 l 110 318 l 110 169 q 119 86 110 119 q 149 34 128 53 q 203 8 169 15 q 288 0 238 0 z "},"K":{"ha":1103,"x_min":183,"x_max":1049,"o":"m 183 0 l 351 0 l 351 315 l 781 0 l 1049 0 l 515 379 l 990 717 l 749 717 l 351 418 l 351 717 l 183 717 l 183 0 z "},"L":{"ha":949,"x_min":183,"x_max":888,"o":"m 183 0 l 888 0 l 888 135 l 350 135 l 350 717 l 183 717 l 183 0 z "},"M":{"ha":1286,"x_min":182,"x_max":1118,"o":"m 182 0 l 317 0 l 317 443 q 313 519 317 475 q 332 481 321 499 q 356 446 343 463 l 625 86 l 658 86 l 928 444 q 948 476 938 457 q 969 519 958 496 q 965 473 967 492 q 964 443 964 454 l 964 0 l 1118 0 l 1118 717 l 985 717 l 654 283 l 317 717 l 182 717 l 182 0 z "},"N":{"ha":1207,"x_min":182,"x_max":1025,"o":"m 182 0 l 332 0 l 332 388 q 331 431 332 403 q 325 501 329 460 q 355 471 340 485 q 385 443 369 457 l 911 0 l 1025 0 l 1025 717 l 875 717 l 875 340 q 877 292 875 324 q 882 217 879 261 q 842 258 863 239 q 800 294 822 276 l 296 717 l 182 717 l 182 0 z "},"O":{"ha":1219,"x_min":168,"x_max":1051,"o":"m 335 135 l 335 589 l 885 589 l 885 135 l 335 135 m 168 547 l 168 169 q 177 86 168 119 q 207 34 186 53 q 262 8 228 15 q 346 0 296 0 l 874 0 q 958 8 924 0 q 1013 34 992 15 q 1042 86 1033 53 q 1051 169 1051 119 l 1051 547 q 1042 631 1051 597 q 1013 683 1033 664 q 958 709 992 701 q 874 717 924 717 l 346 717 q 262 709 296 717 q 207 683 228 701 q 177 631 186 664 q 168 547 168 597 z "},"P":{"ha":1032,"x_min":183,"x_max":958,"o":"m 183 0 l 347 0 l 347 279 l 797 279 q 919 311 881 279 q 958 418 958 343 l 958 578 q 919 685 958 653 q 797 717 881 717 l 183 717 l 183 0 m 722 593 q 779 583 761 593 q 797 536 797 572 l 797 460 q 779 413 797 424 q 722 403 761 403 l 347 403 l 347 593 l 722 593 z "},"Q":{"ha":1219,"x_min":168,"x_max":1051,"o":"m 335 135 l 335 589 l 885 589 l 885 135 l 732 135 l 635 339 l 514 290 l 581 135 l 335 135 m 168 547 l 168 169 q 177 86 168 119 q 207 34 186 53 q 262 8 228 15 q 346 0 296 0 l 640 0 l 721 -185 l 886 -185 l 796 0 l 874 0 q 958 8 924 0 q 1013 34 992 15 q 1042 86 1033 53 q 1051 169 1051 119 l 1051 547 q 1042 631 1051 597 q 1013 683 1033 664 q 958 709 992 701 q 874 717 924 717 l 346 717 q 262 709 296 717 q 207 683 228 701 q 177 631 186 664 q 168 547 168 597 z "},"R":{"ha":1114,"x_min":183,"x_max":1033,"o":"m 183 0 l 347 0 l 347 271 l 506 271 l 794 0 l 1033 0 l 703 271 l 797 271 q 919 303 881 271 q 958 410 958 335 l 958 578 q 919 685 958 653 q 797 717 881 717 l 183 717 l 183 0 m 722 593 q 779 583 761 593 q 797 536 797 572 l 797 450 q 779 403 797 414 q 722 393 761 393 l 347 393 l 347 593 l 722 593 z "},"S":{"ha":1124,"x_min":160,"x_max":961,"o":"m 804 592 l 804 510 l 951 544 l 951 560 q 942 636 951 606 q 910 685 932 667 q 855 710 889 703 q 774 717 821 717 l 367 717 q 283 709 317 717 q 228 683 249 701 q 198 631 207 664 q 189 547 189 597 l 189 468 q 198 385 189 418 q 228 333 207 351 q 283 306 249 314 q 367 299 317 299 l 814 299 l 814 135 l 307 135 l 307 219 l 160 189 l 160 169 q 169 86 160 119 q 199 34 178 53 q 254 8 219 15 q 339 0 289 0 l 782 0 q 867 8 832 0 q 922 34 901 15 q 952 86 943 53 q 961 169 961 119 l 961 268 q 952 351 961 318 q 922 403 943 385 q 867 430 901 422 q 782 438 832 438 l 335 438 l 335 592 l 804 592 z "},"T":{"ha":868,"x_min":21,"x_max":847,"o":"m 517 589 l 847 589 l 847 717 l 21 717 l 21 589 l 350 589 l 350 0 l 517 0 l 517 589 z "},"U":{"ha":1175,"x_min":183,"x_max":992,"o":"m 350 717 l 183 717 l 183 169 q 192 86 183 119 q 222 34 201 53 q 277 8 243 15 q 361 0 311 0 l 814 0 q 898 8 864 0 q 953 34 932 15 q 983 86 974 53 q 992 169 992 119 l 992 717 l 825 717 l 825 135 l 350 135 l 350 717 z "},"V":{"ha":946,"x_min":11,"x_max":935,"o":"m 425 0 l 540 0 l 935 717 l 768 717 l 492 199 l 201 717 l 11 717 l 425 0 z "},"W":{"ha":1286,"x_min":54,"x_max":1232,"o":"m 331 0 l 446 0 l 646 496 l 843 0 l 956 0 l 1232 717 l 1083 717 l 910 236 l 715 717 l 599 717 l 408 236 l 226 717 l 54 717 l 331 0 z "},"X":{"ha":997,"x_min":68,"x_max":1001,"o":"m 74 0 l 271 0 l 513 278 l 775 0 l 1001 0 l 615 388 l 928 717 l 736 717 l 518 474 l 289 717 l 68 717 l 414 368 l 74 0 z "},"Y":{"ha":933,"x_min":11,"x_max":922,"o":"m 383 0 l 551 0 l 551 325 l 922 717 l 726 717 l 479 442 l 233 717 l 11 717 l 383 321 l 383 0 z "},"Z":{"ha":947,"x_min":85,"x_max":854,"o":"m 85 0 l 854 0 l 854 135 l 346 135 l 854 646 l 854 717 l 135 717 l 135 589 l 586 589 l 85 78 l 85 0 z "},"[":{"ha":460,"x_min":131,"x_max":438,"o":"m 438 -22 l 438 81 l 264 81 l 264 640 l 438 640 l 438 739 l 131 739 l 131 -22 l 438 -22 z "},"\\":{"ha":386,"x_min":-33,"x_max":419,"o":"m 58 739 l -33 739 l 331 -22 l 419 -22 l 58 739 z "},"]":{"ha":460,"x_min":22,"x_max":329,"o":"m 22 -22 l 329 -22 l 329 739 l 22 739 l 22 640 l 196 640 l 196 81 l 22 81 l 22 -22 z "},"^":{"ha":1389,"x_min":285,"x_max":1103,"o":"m 757 989 l 631 989 l 285 611 l 407 611 l 694 896 l 981 611 l 1103 611 l 757 989 z "},"_":{"ha":694,"x_min":0,"x_max":694,"o":"m 694 -231 l 0 -231 l 0 -328 l 694 -328 l 694 -231 z "},"`":{"ha":694,"x_min":158,"x_max":447,"o":"m 447 664 l 308 899 l 158 899 l 358 664 l 447 664 z "},"a":{"ha":897,"x_min":42,"x_max":882,"o":"m 319 236 l 451 481 l 589 236 l 319 236 m 42 0 l 185 0 l 258 129 l 647 129 l 721 0 l 882 0 l 528 588 l 390 588 l 42 0 z "},"b":{"ha":913,"x_min":131,"x_max":801,"o":"m 593 256 q 646 245 629 256 q 663 203 663 235 l 663 158 q 646 116 663 126 q 593 106 629 106 l 272 106 l 272 256 l 593 256 m 593 492 q 642 484 626 492 q 657 450 657 476 l 657 394 q 641 360 657 368 q 593 353 625 353 l 272 353 l 272 492 l 593 492 m 131 0 l 619 0 q 801 115 801 0 l 801 190 q 774 265 801 235 q 697 303 747 294 q 772 337 746 311 q 797 403 797 363 l 797 474 q 763 562 797 536 q 658 588 729 588 l 131 588 l 131 0 z "},"c":{"ha":894,"x_min":117,"x_max":790,"o":"m 646 479 l 646 371 l 790 392 l 790 449 q 783 517 790 490 q 757 560 775 544 q 709 581 739 575 q 636 588 679 588 l 269 588 q 196 581 225 588 q 149 559 167 575 q 124 517 132 543 q 117 449 117 490 l 117 139 q 124 72 117 99 q 149 28 131 44 q 196 6 167 13 q 269 0 225 0 l 636 0 q 709 6 679 0 q 757 28 739 13 q 783 71 775 44 q 790 139 790 97 l 790 208 l 646 238 l 646 113 l 260 113 l 260 479 l 646 479 z "},"d":{"ha":964,"x_min":131,"x_max":879,"o":"m 131 0 l 490 0 q 879 296 879 0 q 790 510 879 433 q 526 588 701 588 l 131 588 l 131 0 m 275 110 l 275 482 l 528 482 q 681 438 631 482 q 732 303 732 394 q 715 208 732 246 q 665 149 699 171 q 579 118 631 126 q 460 110 528 110 l 275 110 z "},"e":{"ha":844,"x_min":131,"x_max":768,"o":"m 131 0 l 768 0 l 768 110 l 275 110 l 275 254 l 558 254 l 558 356 l 275 356 l 275 483 l 761 483 l 761 588 l 131 588 l 131 0 z "},"f":{"ha":764,"x_min":131,"x_max":754,"o":"m 131 0 l 275 0 l 275 219 l 533 219 l 533 329 l 275 329 l 275 482 l 754 482 l 754 588 l 131 588 l 131 0 z "},"g":{"ha":961,"x_min":117,"x_max":847,"o":"m 707 479 l 707 417 l 847 440 l 847 456 q 813 561 847 535 q 694 588 778 588 l 269 588 q 197 581 226 588 q 150 560 168 575 q 124 517 132 544 q 117 449 117 490 l 117 139 q 124 71 117 97 q 149 28 132 44 q 196 6 167 13 q 269 0 225 0 l 694 0 q 767 6 738 0 q 815 28 797 13 q 840 71 832 44 q 847 139 847 97 l 847 342 l 474 342 l 474 238 l 707 238 l 707 113 l 260 113 l 260 479 l 707 479 z "},"h":{"ha":997,"x_min":131,"x_max":865,"o":"m 131 0 l 275 0 l 275 247 l 722 247 l 722 0 l 865 0 l 865 588 l 722 588 l 722 364 l 275 364 l 275 588 l 131 588 l 131 0 z "},"i":{"ha":404,"x_min":131,"x_max":274,"o":"m 131 0 l 274 0 l 274 588 l 131 588 l 131 0 z "},"j":{"ha":778,"x_min":76,"x_max":646,"o":"m 231 0 l 492 0 q 565 6 535 0 q 613 28 594 13 q 638 71 631 44 q 646 139 646 97 l 646 588 l 501 588 l 501 110 l 221 110 l 221 288 l 76 261 l 76 139 q 84 71 76 97 q 110 28 92 44 q 157 6 128 13 q 231 0 186 0 z "},"k":{"ha":861,"x_min":131,"x_max":871,"o":"m 131 0 l 275 0 l 275 265 l 644 0 l 871 0 l 419 315 l 825 588 l 618 588 l 275 350 l 275 588 l 131 588 l 131 0 z "},"l":{"ha":767,"x_min":131,"x_max":736,"o":"m 131 0 l 736 0 l 736 110 l 275 110 l 275 588 l 131 588 l 131 0 z "},"m":{"ha":1065,"x_min":131,"x_max":935,"o":"m 131 0 l 246 0 l 246 394 l 511 71 l 539 71 l 801 404 l 801 0 l 935 0 l 935 588 l 819 588 l 533 239 l 246 588 l 131 588 l 131 0 z "},"n":{"ha":989,"x_min":131,"x_max":857,"o":"m 131 0 l 261 0 l 261 396 l 758 0 l 857 0 l 857 588 l 728 588 l 728 197 l 229 588 l 131 588 l 131 0 z "},"o":{"ha":993,"x_min":117,"x_max":876,"o":"m 117 449 l 117 139 q 124 70 117 97 q 149 28 132 43 q 196 6 167 13 q 269 0 225 0 l 724 0 q 796 6 767 0 q 843 28 825 13 q 869 70 861 43 q 876 139 876 97 l 876 449 q 869 517 876 490 q 843 560 861 544 q 796 582 825 576 q 724 588 767 588 l 269 588 q 197 582 226 588 q 150 560 168 576 q 124 517 132 544 q 117 449 117 490 m 260 113 l 260 479 l 733 479 l 733 113 l 260 113 z "},"p":{"ha":872,"x_min":131,"x_max":797,"o":"m 599 486 q 647 477 631 486 q 664 439 664 468 l 664 378 q 647 340 664 349 q 599 331 631 331 l 272 331 l 272 486 l 599 486 m 131 0 l 272 0 l 272 229 l 660 229 q 764 255 731 229 q 797 343 797 281 l 797 474 q 764 562 797 536 q 660 588 731 588 l 131 588 l 131 0 z "},"q":{"ha":993,"x_min":117,"x_max":876,"o":"m 260 113 l 260 479 l 733 479 l 733 113 l 597 113 l 517 278 l 414 239 l 475 113 l 260 113 m 117 449 l 117 140 q 124 72 117 99 q 149 30 132 46 q 196 8 167 14 q 269 1 225 1 l 524 1 l 590 -150 l 733 -150 l 654 1 l 724 1 q 796 8 767 1 q 843 30 825 14 q 869 72 861 46 q 876 140 876 99 l 876 449 q 869 519 876 492 q 843 561 861 546 q 796 582 825 576 q 724 588 767 588 l 269 588 q 197 582 226 588 q 150 561 168 576 q 124 519 132 546 q 117 449 117 492 z "},"r":{"ha":903,"x_min":131,"x_max":858,"o":"m 131 0 l 272 0 l 272 222 l 407 222 l 653 0 l 858 0 l 579 222 l 660 222 q 764 248 731 222 q 797 335 797 274 l 797 474 q 764 562 797 536 q 660 588 731 588 l 131 588 l 131 0 m 599 486 q 647 477 631 486 q 664 439 664 468 l 664 371 q 647 333 664 342 q 599 324 631 324 l 272 324 l 272 486 l 599 486 z "},"s":{"ha":921,"x_min":115,"x_max":804,"o":"m 674 482 l 674 419 l 797 446 l 797 460 q 760 562 797 536 q 643 588 724 588 l 294 588 q 222 581 251 588 q 174 560 192 575 q 148 517 156 544 q 140 449 140 490 l 140 383 q 148 315 140 342 q 174 272 156 288 q 222 251 192 257 q 294 244 251 244 l 675 244 l 675 110 l 243 110 l 243 179 l 115 156 l 115 139 q 123 71 115 97 q 149 28 131 44 q 196 6 167 13 q 269 0 225 0 l 651 0 q 724 6 694 0 q 772 28 754 13 q 797 71 789 44 q 804 139 804 97 l 804 219 q 797 288 804 261 q 772 331 789 315 q 724 352 754 346 q 651 358 694 358 l 269 358 l 269 482 l 674 482 z "},"t":{"ha":819,"x_min":54,"x_max":765,"o":"m 481 482 l 765 482 l 765 588 l 54 588 l 54 482 l 338 482 l 338 0 l 481 0 l 481 482 z "},"u":{"ha":957,"x_min":131,"x_max":826,"o":"m 274 588 l 131 588 l 131 139 q 138 71 131 97 q 163 28 146 44 q 210 6 181 13 q 283 0 239 0 l 672 0 q 745 6 715 0 q 793 28 775 13 q 819 71 811 44 q 826 139 826 97 l 826 588 l 682 588 l 682 110 l 274 110 l 274 588 z "},"v":{"ha":878,"x_min":50,"x_max":844,"o":"m 406 0 l 504 0 l 844 588 l 696 588 l 461 161 l 213 588 l 50 588 l 406 0 z "},"w":{"ha":1096,"x_min":50,"x_max":1063,"o":"m 289 0 l 388 0 l 560 415 l 729 0 l 826 0 l 1063 588 l 933 588 l 782 178 l 618 588 l 519 588 l 354 178 l 200 588 l 50 588 l 289 0 z "},"x":{"ha":886,"x_min":65,"x_max":868,"o":"m 71 0 l 240 0 l 447 219 l 672 0 l 868 0 l 538 318 l 806 588 l 640 588 l 454 397 l 257 588 l 65 588 l 361 301 l 71 0 z "},"y":{"ha":824,"x_min":32,"x_max":815,"o":"m 353 0 l 496 0 l 496 267 l 815 588 l 647 588 l 435 368 l 225 588 l 32 588 l 353 264 l 353 0 z "},"z":{"ha":856,"x_min":97,"x_max":760,"o":"m 97 0 l 760 0 l 760 108 l 321 108 l 760 529 l 760 588 l 140 588 l 140 482 l 528 482 l 97 64 l 97 0 z "},"{":{"ha":694,"x_min":114,"x_max":588,"o":"m 588 900 l 588 1001 l 563 1001 q 454 994 500 1001 q 374 967 408 988 q 317 888 328 939 q 306 758 306 838 l 306 592 q 269 451 306 493 q 144 410 233 410 q 130 410 138 410 q 114 411 122 411 l 114 310 q 128 310 121 310 q 143 311 136 311 q 269 269 233 311 q 306 128 306 226 l 306 -39 q 317 -169 306 -118 q 374 -247 328 -219 q 452 -274 407 -268 q 558 -281 497 -281 l 588 -281 l 588 -181 l 561 -181 q 490 -173 517 -181 q 447 -147 463 -165 q 427 -99 432 -129 q 422 -25 422 -69 l 422 139 q 417 224 422 188 q 397 287 411 260 q 356 331 382 314 q 286 360 329 349 q 355 388 328 371 q 397 433 382 406 q 417 496 411 460 q 422 581 422 532 l 422 744 q 428 819 422 789 q 448 867 433 849 q 490 892 463 885 q 560 900 517 900 l 588 900 z "},"|":{"ha":694,"x_min":297,"x_max":399,"o":"m 399 1061 l 297 1061 l 297 -328 l 399 -328 l 399 1061 z "},"}":{"ha":694,"x_min":108,"x_max":582,"o":"m 390 758 q 379 888 390 838 q 322 967 368 939 q 242 994 289 988 q 133 1001 196 1001 l 108 1001 l 108 900 l 135 900 q 206 892 178 900 q 248 867 233 885 q 268 819 263 849 q 274 744 274 789 l 274 581 q 279 496 274 532 q 299 433 285 460 q 341 388 314 406 q 410 360 368 371 q 341 331 368 349 q 299 287 314 314 q 279 224 285 260 q 274 139 274 188 l 274 -24 q 268 -99 274 -68 q 248 -147 263 -129 q 206 -173 233 -165 q 135 -181 178 -181 l 108 -181 l 108 -281 l 138 -281 q 244 -274 199 -281 q 322 -247 289 -268 q 379 -169 368 -219 q 390 -39 390 -118 l 390 128 q 426 269 390 226 q 553 311 461 311 q 567 310 560 311 q 582 310 575 310 l 582 411 q 566 410 574 411 q 551 410 558 410 q 476 419 507 410 q 426 451 444 429 q 399 508 407 474 q 390 592 390 542 l 390 758 z "},"~":{"ha":1157,"x_min":121,"x_max":1038,"o":"m 1038 417 l 1038 522 q 903 444 965 471 q 775 417 840 417 q 679 433 726 417 q 581 467 632 449 q 485 496 533 483 q 383 508 438 508 q 121 411 264 508 l 121 306 q 258 385 196 358 q 382 413 319 413 q 482 399 435 413 q 578 368 529 385 q 674 336 626 351 q 774 321 721 321 q 904 344 840 321 q 1038 417 968 368 z "},"‚":{"ha":460,"x_min":117,"x_max":336,"o":"m 279 215 l 179 215 q 150 215 161 215 q 133 209 139 214 q 124 194 126 204 q 122 164 122 183 l 122 78 q 128 39 122 51 q 156 26 135 26 l 179 26 l 235 26 l 117 -185 l 199 -185 l 336 21 l 336 164 q 330 203 336 190 q 303 215 324 215 l 279 215 z "},"ƒ":{"ha":1074,"x_min":131,"x_max":929,"o":"m 536 8 l 624 457 l 790 457 l 790 538 l 640 538 l 668 675 q 693 740 676 719 q 747 760 710 760 q 794 713 794 760 l 794 707 l 792 663 l 929 682 l 928 729 q 763 865 926 865 q 662 858 703 865 q 594 829 621 850 q 550 772 567 808 q 522 681 533 736 l 494 538 l 349 538 l 349 457 l 478 457 l 392 18 q 367 -46 383 -25 q 317 -67 350 -67 q 276 -57 288 -67 q 265 -19 265 -47 l 265 -14 l 267 40 l 131 8 l 131 -39 q 313 -178 131 -178 q 407 -168 368 -178 q 471 -136 446 -158 q 511 -78 496 -114 q 536 8 526 -43 z "},"„":{"ha":804,"x_min":117,"x_max":681,"o":"m 279 215 l 179 215 q 150 215 161 215 q 133 209 139 214 q 124 194 126 204 q 122 164 122 183 l 122 78 q 128 39 122 51 q 156 26 135 26 l 179 26 l 235 26 l 117 -185 l 199 -185 l 336 21 l 336 164 q 330 203 336 190 q 303 215 324 215 l 279 215 m 622 215 l 524 215 q 494 215 506 215 q 477 209 483 214 q 468 194 471 204 q 465 164 465 183 l 465 78 q 472 39 465 51 q 500 26 479 26 l 524 26 l 578 26 l 460 -185 l 543 -185 l 681 21 l 681 164 q 674 203 681 190 q 647 215 668 215 l 622 215 z "},"…":{"ha":1389,"x_min":124,"x_max":1265,"o":"m 281 215 l 182 215 q 153 215 164 215 q 135 209 142 214 q 126 194 129 204 q 124 164 124 183 l 124 51 q 130 13 124 25 q 157 0 136 0 l 182 0 l 281 0 q 310 1 299 0 q 327 6 321 1 q 336 22 333 11 q 339 51 339 32 l 339 164 q 333 203 339 190 q 306 215 326 215 l 281 215 m 743 215 l 644 215 q 615 215 626 215 q 598 209 604 214 q 589 194 592 204 q 586 164 586 183 l 586 51 q 592 13 586 25 q 619 0 599 0 l 644 0 l 743 0 q 772 1 761 0 q 790 6 783 1 q 799 22 796 11 q 801 51 801 32 l 801 164 q 795 203 801 190 q 768 215 789 215 l 743 215 m 1207 215 l 1108 215 q 1079 215 1090 215 q 1062 209 1068 214 q 1053 194 1056 204 q 1050 164 1050 183 l 1050 51 q 1056 13 1050 25 q 1083 0 1063 0 l 1108 0 l 1207 0 q 1236 1 1225 0 q 1253 6 1247 1 q 1263 22 1260 11 q 1265 51 1265 32 l 1265 164 q 1259 203 1265 190 q 1232 215 1253 215 l 1207 215 z "},"†":{"ha":694,"x_min":99,"x_max":594,"o":"m 328 -147 l 365 -147 q 385 72 371 -29 q 422 257 400 174 q 390 347 404 301 q 365 440 376 392 l 594 389 l 594 536 l 365 488 l 422 717 l 272 717 l 328 488 l 99 536 l 99 389 l 328 440 q 303 347 317 392 q 272 257 290 301 q 308 72 294 174 q 328 -147 322 -29 z "},"‡":{"ha":694,"x_min":99,"x_max":594,"o":"m 422 289 l 365 440 l 594 389 l 594 536 l 365 488 l 422 717 l 272 717 l 328 488 l 99 536 l 99 389 l 328 440 l 272 289 l 328 138 l 99 190 l 99 43 l 328 90 l 272 -139 l 422 -139 l 365 90 l 594 43 l 594 190 l 365 138 l 422 289 z "},"ˆ":{"ha":694,"x_min":146,"x_max":549,"o":"m 146 663 l 233 663 l 347 806 l 460 663 l 549 663 l 421 899 l 274 899 l 146 663 z "},"‰":{"ha":1611,"x_min":61,"x_max":1549,"o":"m 61 528 q 78 444 61 483 q 125 376 96 406 q 193 330 154 347 q 275 313 232 313 q 356 330 318 313 q 424 376 394 347 q 470 444 453 406 q 488 528 488 483 q 471 610 488 572 q 426 677 454 649 q 358 722 397 706 q 275 739 319 739 q 192 723 231 739 q 124 678 153 707 q 78 611 94 650 q 61 528 61 572 m 156 525 q 190 609 156 574 q 274 644 225 644 q 320 635 299 644 q 358 609 342 625 q 383 572 374 593 q 393 525 393 550 q 358 442 393 476 q 274 407 324 407 q 227 417 249 407 q 190 442 206 426 q 165 480 174 458 q 156 525 156 501 m 901 739 l 811 739 l 207 -22 l 297 -22 l 901 739 m 621 192 q 638 108 621 147 q 683 40 654 69 q 751 -6 713 11 q 833 -22 790 -22 q 915 -6 876 -22 q 983 40 954 11 q 1030 108 1013 69 q 1047 192 1047 147 q 1031 275 1047 236 q 985 342 1014 314 q 917 388 956 371 q 833 404 878 404 q 750 388 789 404 q 683 342 711 371 q 638 275 654 314 q 621 192 621 236 m 715 190 q 750 274 715 239 q 833 310 785 310 q 880 300 858 310 q 917 274 901 290 q 943 237 933 258 q 953 190 953 215 q 918 107 953 142 q 833 72 883 72 q 787 82 808 72 q 749 108 765 92 q 724 145 733 124 q 715 190 715 167 m 1122 192 q 1140 108 1122 147 q 1186 40 1157 69 q 1254 -6 1215 11 q 1336 -22 1293 -22 q 1417 -6 1379 -22 q 1485 40 1456 11 q 1531 108 1514 69 q 1549 192 1549 147 q 1532 275 1549 236 q 1487 342 1515 314 q 1419 388 1458 371 q 1336 404 1381 404 q 1253 388 1292 404 q 1185 342 1214 371 q 1139 275 1156 314 q 1122 192 1122 236 m 1217 190 q 1251 274 1217 239 q 1335 310 1286 310 q 1381 300 1360 310 q 1419 274 1403 290 q 1444 237 1435 258 q 1454 190 1454 215 q 1419 107 1454 142 q 1335 72 1385 72 q 1288 82 1310 72 q 1251 108 1267 92 q 1226 145 1235 124 q 1217 190 1217 167 z "},"Š":{"ha":1124,"x_min":160,"x_max":961,"o":"m 804 592 l 804 510 l 951 544 l 951 560 q 942 636 951 606 q 910 685 932 667 q 855 710 889 703 q 774 717 821 717 l 367 717 q 283 709 317 717 q 228 683 249 701 q 198 631 207 664 q 189 547 189 597 l 189 468 q 198 385 189 418 q 228 333 207 351 q 283 306 249 314 q 367 299 317 299 l 814 299 l 814 135 l 307 135 l 307 219 l 160 189 l 160 169 q 169 86 160 119 q 199 34 178 53 q 254 8 219 15 q 339 0 289 0 l 782 0 q 867 8 832 0 q 922 34 901 15 q 952 86 943 53 q 961 169 961 119 l 961 268 q 952 351 961 318 q 922 403 943 385 q 867 430 901 422 q 782 438 832 438 l 335 438 l 335 592 l 804 592 m 361 1028 l 489 792 l 636 792 l 764 1028 l 675 1028 l 563 886 l 449 1028 l 361 1028 z "},"‹":{"ha":460,"x_min":86,"x_max":374,"o":"m 374 89 l 215 294 l 374 499 l 250 499 l 86 294 l 250 89 l 374 89 z "},"Œ":{"ha":1535,"x_min":168,"x_max":1411,"o":"m 335 135 l 335 594 l 779 594 l 779 135 l 335 135 m 168 547 l 168 169 q 177 86 168 119 q 207 34 186 53 q 262 8 228 15 q 346 0 296 0 l 1411 0 l 1411 135 l 942 135 l 942 313 l 1272 313 l 1272 435 l 942 435 l 942 594 l 1404 594 l 1404 717 l 346 717 q 262 709 296 717 q 207 683 228 701 q 177 631 186 664 q 168 547 168 597 z "},"‘":{"ha":460,"x_min":124,"x_max":343,"o":"m 181 317 l 281 317 q 310 317 299 317 q 327 323 321 318 q 335 338 333 328 q 338 368 338 349 l 338 454 q 331 493 338 481 q 304 506 325 506 l 281 506 l 225 506 l 343 717 l 261 717 l 124 511 l 124 368 q 130 329 124 342 q 157 317 136 317 l 181 317 z "},"’":{"ha":460,"x_min":117,"x_max":336,"o":"m 279 717 l 179 717 q 150 716 161 717 q 133 710 139 715 q 124 695 126 706 q 122 665 122 685 l 122 579 q 128 540 122 553 q 156 528 135 528 l 179 528 l 235 528 l 117 317 l 199 317 l 336 522 l 336 665 q 330 704 336 692 q 303 717 324 717 l 279 717 z "},"“":{"ha":804,"x_min":124,"x_max":688,"o":"m 181 317 l 281 317 q 310 317 299 317 q 327 323 321 318 q 335 338 333 328 q 338 368 338 349 l 338 454 q 331 493 338 481 q 304 506 325 506 l 281 506 l 225 506 l 343 717 l 261 717 l 124 511 l 124 368 q 130 329 124 342 q 157 317 136 317 l 181 317 m 525 317 l 624 317 q 653 317 642 317 q 670 323 664 318 q 679 338 676 328 q 682 368 682 349 l 682 454 q 676 493 682 481 q 649 506 669 506 l 624 506 l 569 506 l 688 717 l 604 717 l 467 511 l 467 368 q 474 329 467 342 q 501 317 481 317 l 525 317 z "},"”":{"ha":804,"x_min":117,"x_max":681,"o":"m 279 717 l 179 717 q 150 716 161 717 q 133 710 139 715 q 124 695 126 706 q 122 665 122 685 l 122 579 q 128 540 122 553 q 156 528 135 528 l 179 528 l 235 528 l 117 317 l 199 317 l 336 522 l 336 665 q 330 704 336 692 q 303 717 324 717 l 279 717 m 622 717 l 524 717 q 494 716 506 717 q 477 710 483 715 q 468 695 471 706 q 465 665 465 685 l 465 579 q 472 540 465 553 q 500 528 479 528 l 524 528 l 578 528 l 460 317 l 543 317 l 681 522 l 681 665 q 674 704 681 692 q 647 717 668 717 l 622 717 z "},"•":{"ha":819,"x_min":208,"x_max":610,"o":"m 208 517 q 224 438 208 475 q 266 374 239 401 q 330 331 293 347 q 408 315 367 315 q 487 331 450 315 q 551 375 524 347 q 594 439 578 403 q 610 517 610 475 q 594 594 610 558 q 551 658 578 631 q 488 701 524 685 q 410 717 451 717 q 331 701 368 717 q 267 658 294 685 q 224 594 240 631 q 208 517 208 558 z "},"–":{"ha":694,"x_min":0,"x_max":694,"o":"m 0 321 l 694 321 l 694 418 l 0 418 l 0 321 z "},"—":{"ha":1389,"x_min":0,"x_max":1389,"o":"m 0 418 l 0 321 l 1389 321 l 1389 418 l 0 418 z "},"˜":{"ha":694,"x_min":143,"x_max":551,"o":"m 551 856 l 483 856 q 461 818 476 831 q 425 806 446 806 q 390 810 407 806 l 331 826 q 274 836 300 836 q 143 688 169 836 l 211 688 q 269 733 225 733 q 313 726 288 733 l 369 710 q 417 703 394 703 q 504 740 472 703 q 551 856 536 776 z "},"™":{"ha":1157,"x_min":164,"x_max":953,"o":"m 471 989 l 164 989 l 164 935 l 281 935 l 281 624 l 354 624 l 354 935 l 471 935 l 471 989 m 653 989 l 551 989 l 551 624 l 618 624 l 618 925 l 736 624 l 774 624 l 886 925 l 886 624 l 953 624 l 953 989 l 851 989 l 756 728 l 653 989 z "},"š":{"ha":921,"x_min":115,"x_max":804,"o":"m 674 482 l 674 419 l 797 446 l 797 460 q 760 562 797 536 q 643 588 724 588 l 294 588 q 222 581 251 588 q 174 560 192 575 q 148 517 156 544 q 140 449 140 490 l 140 383 q 148 315 140 342 q 174 272 156 288 q 222 251 192 257 q 294 244 251 244 l 675 244 l 675 110 l 243 110 l 243 179 l 115 156 l 115 139 q 123 71 115 97 q 149 28 131 44 q 196 6 167 13 q 269 0 225 0 l 651 0 q 724 6 694 0 q 772 28 754 13 q 797 71 789 44 q 804 139 804 97 l 804 219 q 797 288 804 261 q 772 331 789 315 q 724 352 754 346 q 651 358 694 358 l 269 358 l 269 482 l 674 482 m 260 899 l 388 663 l 535 663 l 663 899 l 574 899 l 461 757 l 347 899 l 260 899 z "},"›":{"ha":460,"x_min":86,"x_max":374,"o":"m 86 499 l 244 294 l 86 89 l 210 89 l 374 294 l 210 499 l 86 499 z "},"œ":{"ha":1260,"x_min":117,"x_max":1186,"o":"m 117 449 l 117 139 q 124 71 117 97 q 149 28 131 44 q 196 6 167 13 q 269 0 225 0 l 1186 0 l 1186 111 l 782 111 l 782 254 l 1067 254 l 1067 356 l 782 356 l 782 483 l 1181 483 l 1181 588 l 269 588 q 196 581 225 588 q 149 560 167 575 q 124 517 132 544 q 117 449 117 490 m 260 113 l 260 479 l 643 479 l 643 113 l 260 113 z "},"Ÿ":{"ha":933,"x_min":11,"x_max":922,"o":"m 383 0 l 551 0 l 551 325 l 922 717 l 726 717 l 479 442 l 233 717 l 11 717 l 383 321 l 383 0 m 282 825 l 421 825 l 421 981 l 282 981 l 282 825 m 513 825 l 651 825 l 651 981 l 513 981 l 513 825 z "},"¡":{"ha":533,"x_min":157,"x_max":372,"o":"m 319 425 l 210 425 l 157 0 l 372 0 l 319 425 m 215 519 l 314 519 q 342 520 331 519 q 360 525 354 521 q 369 539 367 529 q 372 567 372 549 l 372 669 q 366 706 372 694 q 338 717 360 717 l 314 717 l 215 717 q 169 710 181 717 q 157 669 157 704 l 157 567 q 163 531 157 542 q 192 519 169 519 l 215 519 z "},"¢":{"ha":1074,"x_min":279,"x_max":794,"o":"m 372 -140 l 447 -140 l 496 0 l 682 0 q 768 18 742 0 q 794 88 794 36 l 794 178 l 672 207 l 672 113 l 533 113 l 624 371 l 672 371 l 672 296 l 794 315 l 794 378 q 789 431 794 411 q 768 463 783 451 q 727 477 753 474 q 661 481 701 481 l 700 594 l 625 594 l 586 481 l 411 481 q 347 475 372 481 q 306 457 321 469 q 285 424 292 444 q 279 371 279 403 l 279 113 q 301 27 279 54 q 385 0 322 0 l 421 0 l 372 -140 m 460 113 l 411 113 l 411 371 l 549 371 l 460 113 z "},"£":{"ha":1074,"x_min":144,"x_max":996,"o":"m 146 -17 l 158 -17 q 260 2 215 -17 q 351 61 306 21 q 583 6 481 24 q 765 -11 686 -11 q 996 165 996 -11 l 996 217 l 860 242 l 860 214 q 833 140 860 157 q 733 124 807 124 q 584 135 665 124 q 411 172 503 147 q 428 240 422 204 q 435 315 433 275 l 632 315 l 632 425 l 429 425 q 424 492 424 457 q 429 547 424 525 q 448 580 435 568 q 484 597 461 592 q 543 601 507 601 l 701 601 q 776 588 751 601 q 800 531 800 575 l 800 489 l 940 513 l 940 578 q 893 681 940 644 q 750 717 846 717 l 507 717 q 337 670 389 717 q 285 517 285 624 q 286 473 285 496 q 290 425 288 450 l 144 425 l 144 315 l 299 315 q 301 291 300 300 q 301 276 301 282 q 266 167 301 201 q 146 126 231 133 l 146 -17 z "},"¤":{"ha":842,"x_min":54,"x_max":789,"o":"m 249 826 l 110 965 l 54 911 l 194 771 q 138 600 138 694 q 154 501 138 544 q 194 429 171 458 l 54 290 l 110 235 l 249 374 q 422 315 325 315 q 516 331 474 315 q 594 374 558 346 l 733 235 l 789 290 l 650 429 q 692 510 679 468 q 706 600 706 553 q 650 771 706 697 l 789 911 l 733 965 l 594 826 q 421 885 517 885 q 249 826 325 885 m 628 601 q 612 521 628 558 q 568 455 596 483 q 503 410 540 426 q 422 394 465 394 q 342 410 379 394 q 276 455 304 426 q 233 521 249 483 q 217 601 217 558 q 233 681 217 643 q 276 747 249 718 q 342 791 304 775 q 422 807 379 807 q 503 791 465 807 q 568 747 540 775 q 612 681 596 718 q 628 601 628 643 z "},"¥":{"ha":1074,"x_min":88,"x_max":986,"o":"m 792 717 l 550 435 l 307 717 l 88 717 l 276 517 l 125 517 l 125 426 l 361 426 l 461 319 l 125 319 l 125 229 l 461 229 l 461 0 l 615 0 l 615 229 l 950 229 l 950 319 l 615 319 l 715 426 l 950 426 l 950 517 l 799 517 l 986 717 l 792 717 z "},"¦":{"ha":694,"x_min":297,"x_max":399,"o":"m 399 971 l 297 971 l 297 457 l 399 457 l 399 971 m 399 276 l 297 276 l 297 -237 l 399 -237 l 399 276 z "},"§":{"ha":694,"x_min":85,"x_max":614,"o":"m 183 365 q 199 403 183 388 q 246 419 215 419 q 317 407 269 419 q 419 365 364 394 q 517 269 517 314 q 498 231 517 246 q 447 217 479 217 q 372 230 421 217 q 265 275 322 243 q 183 365 183 319 m 106 -29 q 219 -99 154 -74 q 350 -125 283 -125 q 433 -112 396 -125 q 498 -78 471 -100 q 540 -28 525 -57 q 556 33 556 0 q 533 111 556 75 q 469 167 510 147 q 576 218 539 181 q 614 308 614 256 q 598 373 614 346 q 552 423 582 400 q 479 466 522 446 q 382 507 436 486 q 292 548 324 531 q 261 597 261 565 q 283 639 261 622 q 344 656 304 656 q 482 589 408 656 l 563 660 q 460 721 517 700 q 340 742 403 742 q 198 699 250 742 q 146 593 146 657 q 224 469 146 518 q 121 422 157 458 q 85 329 85 385 q 139 217 85 260 q 300 131 193 174 q 358 106 333 117 q 401 85 383 96 q 428 61 419 74 q 438 32 438 49 q 413 -12 438 6 q 349 -31 389 -31 q 186 46 264 -31 l 106 -29 z "},"¨":{"ha":694,"x_min":163,"x_max":532,"o":"m 163 696 l 301 696 l 301 851 l 163 851 l 163 696 m 393 696 l 532 696 l 532 851 l 393 851 l 393 696 z "},"©":{"ha":1157,"x_min":79,"x_max":1079,"o":"m 578 993 q 388 956 476 993 q 228 849 299 919 q 117 683 154 774 q 79 493 79 593 q 117 303 79 393 q 226 142 154 214 q 388 31 299 69 q 578 -7 478 -7 q 769 32 678 -7 q 935 143 860 71 q 1042 301 1006 213 q 1079 493 1079 390 q 1042 685 1079 594 q 933 847 1004 776 q 771 956 861 919 q 578 993 681 993 m 1013 493 q 981 326 1013 403 q 888 189 949 249 q 744 93 822 126 q 579 60 665 60 q 414 92 492 60 q 274 188 336 125 q 178 328 211 250 q 144 493 144 407 q 178 659 144 579 q 275 803 211 739 q 413 896 336 864 q 579 928 490 928 q 888 800 760 928 q 981 660 949 739 q 1013 493 1013 582 m 714 615 l 814 615 q 792 690 810 656 q 743 748 774 724 q 672 785 713 772 q 582 799 631 799 q 473 777 522 799 q 388 717 424 756 q 333 622 353 678 q 314 497 314 565 q 385 269 314 350 q 578 189 456 189 q 747 244 681 189 q 819 388 813 299 l 721 388 q 674 299 711 331 q 582 268 638 268 q 465 326 507 268 q 422 493 422 385 q 464 665 422 606 q 575 724 506 724 q 669 696 633 724 q 714 615 706 668 z "},"ª":{"ha":592,"x_min":28,"x_max":582,"o":"m 211 428 l 299 575 l 389 428 l 211 428 m 28 286 l 122 286 l 171 364 l 428 364 l 476 286 l 582 286 l 349 639 l 257 639 l 28 286 z "},"«":{"ha":781,"x_min":86,"x_max":694,"o":"m 374 89 l 215 294 l 374 499 l 250 499 l 86 294 l 250 89 l 374 89 m 694 89 l 536 294 l 694 499 l 571 499 l 407 294 l 571 89 l 694 89 z "},"¬":{"ha":1157,"x_min":172,"x_max":985,"o":"m 985 583 l 172 583 l 172 489 l 892 489 l 892 243 l 985 243 l 985 583 z "},"­":{"ha":1157,"x_min":172,"x_max":985,"o":"m 985 463 l 172 463 l 172 367 l 985 367 l 985 463 z "},"®":{"ha":1157,"x_min":79,"x_max":1079,"o":"m 578 993 q 388 958 476 993 q 231 851 300 922 q 118 685 157 776 q 79 493 79 593 q 117 304 79 393 q 225 143 154 215 q 388 31 297 69 q 578 -7 478 -7 q 767 31 676 -7 q 933 142 858 69 q 1042 300 1004 211 q 1079 493 1079 389 q 1042 683 1079 593 q 935 844 1004 774 q 772 956 863 918 q 578 993 681 993 m 1013 489 q 981 324 1013 401 q 886 188 949 247 q 742 92 821 125 q 575 60 664 60 q 413 93 492 60 q 272 189 335 126 q 177 329 210 251 q 144 493 144 407 q 178 659 144 579 q 276 804 213 739 q 414 897 336 865 q 579 928 492 928 q 748 895 669 928 q 889 799 826 863 q 981 659 950 738 q 1013 489 1013 581 m 592 786 l 378 786 l 378 219 l 485 219 l 485 461 l 590 461 l 706 219 l 825 219 l 699 478 q 794 530 761 490 q 828 631 828 569 q 592 786 828 786 m 572 717 q 683 694 647 717 q 718 619 718 672 q 683 549 718 569 q 575 529 649 529 l 485 529 l 485 717 l 572 717 z "},"¯":{"ha":694,"x_min":160,"x_max":535,"o":"m 160 724 l 535 724 l 535 824 l 160 824 l 160 724 z "},"°":{"ha":457,"x_min":33,"x_max":424,"o":"m 229 988 q 153 972 189 988 q 91 931 118 957 q 49 869 64 904 q 33 792 33 833 q 49 716 33 751 q 90 654 64 681 q 151 613 115 628 q 228 597 186 597 q 306 613 269 597 q 367 655 342 628 q 408 717 393 682 q 424 792 424 751 q 408 868 424 832 q 367 931 393 904 q 305 972 340 957 q 229 988 269 988 m 360 793 q 350 742 360 765 q 323 699 340 718 q 281 670 306 681 q 229 660 257 660 q 135 699 174 660 q 97 793 97 738 q 108 844 97 821 q 136 886 118 868 q 178 914 154 904 q 229 924 201 924 q 322 885 285 924 q 360 793 360 847 z "},"±":{"ha":1157,"x_min":172,"x_max":985,"o":"m 626 808 l 531 808 l 531 578 l 172 578 l 172 483 l 531 483 l 531 253 l 626 253 l 626 483 l 985 483 l 985 578 l 626 578 l 626 808 m 985 115 l 172 115 l 172 19 l 985 19 l 985 115 z "},"²":{"ha":708,"x_min":104,"x_max":611,"o":"m 128 632 l 128 576 l 222 554 l 222 643 l 492 643 l 492 588 l 164 404 q 113 364 122 381 q 104 325 104 347 l 104 286 l 503 286 q 588 302 564 286 q 611 371 611 318 l 611 404 l 524 426 l 524 364 l 249 364 l 526 517 q 574 551 560 535 q 588 604 588 567 l 588 632 q 564 700 588 683 q 479 717 540 717 l 236 717 q 151 700 175 717 q 128 632 128 683 z "},"³":{"ha":708,"x_min":101,"x_max":599,"o":"m 208 286 l 483 286 q 576 308 553 286 q 599 379 599 329 l 599 424 q 489 511 599 501 q 560 536 540 518 q 581 593 581 554 l 581 632 q 557 700 581 683 q 472 717 533 717 l 217 717 q 132 700 156 717 q 108 632 108 683 l 108 606 l 201 589 l 201 643 l 436 643 q 472 635 464 643 q 481 604 481 628 l 481 582 q 472 551 481 558 q 436 543 464 543 l 293 543 l 293 472 l 453 472 q 490 465 481 472 q 499 433 499 457 l 499 401 q 490 371 499 378 q 453 364 481 364 l 199 364 l 199 424 l 101 406 l 101 371 q 124 302 101 318 q 208 286 147 286 z "},"´":{"ha":694,"x_min":247,"x_max":536,"o":"m 247 664 l 336 664 l 536 899 l 386 899 l 247 664 z "},"µ":{"ha":781,"x_min":-76,"x_max":724,"o":"m 261 726 l 139 726 l -76 -290 l 46 -290 l 121 69 q 198 9 157 28 q 294 -10 239 -10 q 478 79 418 -10 q 513 12 490 32 q 579 -8 535 -8 q 615 -7 597 -8 q 653 -1 633 -6 l 674 96 q 661 94 667 94 q 651 94 657 94 q 614 105 625 94 q 603 140 603 115 q 607 178 603 156 q 618 231 611 200 l 724 726 l 603 726 l 525 363 q 444 156 494 222 q 300 89 393 89 q 199 125 235 89 q 164 229 164 161 q 174 319 164 276 l 261 726 z "},"¶":{"ha":694,"x_min":44,"x_max":650,"o":"m 650 944 l 650 1003 l 311 1003 q 201 985 250 1003 q 117 937 151 968 q 63 862 82 906 q 44 767 44 818 q 112 601 44 665 q 297 531 179 536 l 297 0 l 372 0 l 372 944 l 493 944 l 493 0 l 568 0 l 568 944 l 650 944 z "},"·":{"ha":460,"x_min":117,"x_max":343,"o":"m 117 358 q 150 278 117 313 q 229 244 183 244 q 272 253 251 244 q 309 278 293 263 q 334 315 325 294 q 343 358 343 335 q 310 439 343 407 q 229 471 278 471 q 149 439 181 471 q 117 358 117 407 z "},"¸":{"ha":694,"x_min":194,"x_max":549,"o":"m 194 -294 q 300 -317 253 -310 q 379 -324 347 -324 q 506 -290 463 -324 q 549 -194 549 -256 q 389 -64 549 -64 l 378 -64 l 378 0 l 317 0 l 317 -139 q 331 -138 324 -139 q 344 -137 338 -137 q 417 -150 393 -137 q 442 -192 442 -162 q 368 -243 442 -243 q 194 -214 307 -243 l 194 -294 z "},"¹":{"ha":708,"x_min":224,"x_max":424,"o":"m 324 286 l 424 286 l 424 719 l 224 692 l 224 635 l 324 635 l 324 286 z "},"º":{"ha":656,"x_min":76,"x_max":578,"o":"m 76 556 l 76 369 q 98 303 76 319 q 178 286 119 286 l 478 286 q 556 303 535 286 q 578 369 578 319 l 578 556 q 556 622 578 606 q 478 639 535 639 l 178 639 q 98 622 119 639 q 76 556 76 606 m 171 354 l 171 574 l 483 574 l 483 354 l 171 354 z "},"»":{"ha":781,"x_min":86,"x_max":694,"o":"m 86 499 l 244 294 l 86 89 l 210 89 l 374 294 l 210 499 l 86 499 m 408 499 l 565 294 l 408 89 l 531 89 l 694 294 l 531 499 l 408 499 z "},"¼":{"ha":1585,"x_min":214,"x_max":1526,"o":"m 310 315 l 406 315 l 406 719 l 214 694 l 214 640 l 310 640 l 310 315 m 1139 739 l 1050 739 l 444 -22 l 535 -22 l 1139 739 m 1321 156 l 1075 156 l 1321 335 l 1321 156 m 1321 -4 l 1417 -4 l 1417 89 l 1526 89 l 1526 156 l 1417 156 l 1417 406 l 1318 406 l 979 156 l 979 89 l 1321 89 l 1321 -4 z "},"½":{"ha":1585,"x_min":214,"x_max":1492,"o":"m 310 315 l 406 315 l 406 719 l 214 694 l 214 640 l 310 640 l 310 315 m 1139 739 l 1050 739 l 444 -22 l 535 -22 l 1139 739 m 1031 322 l 1031 271 l 1119 250 l 1119 333 l 1378 333 l 1378 281 l 1065 110 q 1017 72 1025 88 q 1008 36 1008 57 l 1008 0 l 1388 0 q 1469 15 1446 0 q 1492 79 1492 31 l 1492 111 l 1408 132 l 1408 72 l 1146 72 l 1411 215 q 1456 247 1443 233 q 1469 297 1469 261 l 1469 322 q 1447 386 1469 371 q 1365 401 1424 401 l 1135 401 q 1053 386 1076 401 q 1031 322 1031 371 z "},"¾":{"ha":1585,"x_min":96,"x_max":1526,"o":"m 200 315 l 463 315 q 549 335 528 315 q 571 401 571 354 l 571 443 q 467 525 571 517 q 535 549 515 532 q 554 601 554 565 l 554 638 q 531 701 554 686 q 450 717 508 717 l 207 717 q 126 701 149 717 q 103 638 103 686 l 103 613 l 193 599 l 193 649 l 415 649 q 450 641 442 649 q 458 611 458 633 l 458 592 q 450 562 458 569 q 415 554 442 554 l 281 554 l 281 489 l 432 489 q 467 482 458 489 q 476 453 476 475 l 476 424 q 467 394 476 401 q 432 388 458 388 l 189 388 l 189 443 l 96 426 l 96 394 q 119 331 96 346 q 200 315 142 315 m 1139 739 l 1050 739 l 444 -22 l 535 -22 l 1139 739 m 1321 156 l 1075 156 l 1321 335 l 1321 156 m 1321 -4 l 1417 -4 l 1417 89 l 1526 89 l 1526 156 l 1417 156 l 1417 406 l 1318 406 l 979 156 l 979 89 l 1321 89 l 1321 -4 z "},"¿":{"ha":919,"x_min":147,"x_max":751,"o":"m 414 519 l 513 519 q 541 520 529 519 q 559 525 553 521 q 568 539 565 529 q 571 567 571 549 l 571 669 q 565 706 571 694 q 536 717 558 717 l 513 717 l 414 717 q 367 710 379 717 q 356 669 356 704 l 356 567 q 362 531 356 542 q 390 519 368 519 l 414 519 m 532 426 l 390 426 l 390 389 l 147 247 l 147 135 q 318 0 147 0 l 601 0 q 751 147 751 0 l 751 186 l 613 208 l 613 119 l 292 119 l 292 182 l 532 326 l 532 426 z "},"À":{"ha":1071,"x_min":46,"x_max":1024,"o":"m 46 0 l 213 0 l 296 157 l 750 157 l 836 0 l 1024 0 l 613 717 l 451 717 l 46 0 m 367 286 l 526 578 l 681 286 l 367 286 m 636 793 l 497 1028 l 347 1028 l 547 793 l 636 793 z "},"Á":{"ha":1071,"x_min":46,"x_max":1024,"o":"m 46 0 l 213 0 l 296 157 l 750 157 l 836 0 l 1024 0 l 613 717 l 451 717 l 46 0 m 367 286 l 526 578 l 681 286 l 367 286 m 436 793 l 525 793 l 725 1028 l 575 1028 l 436 793 z "},"Â":{"ha":1071,"x_min":46,"x_max":1024,"o":"m 46 0 l 213 0 l 296 157 l 750 157 l 836 0 l 1024 0 l 613 717 l 451 717 l 46 0 m 367 286 l 526 578 l 681 286 l 367 286 m 335 792 l 422 792 l 536 935 l 649 792 l 738 792 l 610 1028 l 463 1028 l 335 792 z "},"Ã":{"ha":1071,"x_min":46,"x_max":1024,"o":"m 46 0 l 213 0 l 296 157 l 750 157 l 836 0 l 1024 0 l 613 717 l 451 717 l 46 0 m 367 286 l 526 578 l 681 286 l 367 286 m 740 985 l 672 985 q 650 947 665 960 q 614 935 635 935 q 579 939 596 935 l 519 956 q 463 965 489 965 q 332 817 358 965 l 400 817 q 458 863 414 863 q 501 856 476 863 l 558 839 q 606 832 583 832 q 693 869 661 832 q 740 985 725 906 z "},"Ä":{"ha":1071,"x_min":46,"x_max":1024,"o":"m 46 0 l 213 0 l 296 157 l 750 157 l 836 0 l 1024 0 l 613 717 l 451 717 l 46 0 m 367 286 l 526 578 l 681 286 l 367 286 m 351 825 l 490 825 l 490 981 l 351 981 l 351 825 m 582 825 l 721 825 l 721 981 l 582 981 l 582 825 z "},"Å":{"ha":1071,"x_min":46,"x_max":1024,"o":"m 46 0 l 213 0 l 296 157 l 750 157 l 836 0 l 1024 0 l 613 717 l 451 717 l 46 0 m 367 286 l 526 578 l 681 286 l 367 286 m 357 938 q 370 868 357 900 q 407 813 383 836 q 463 776 431 789 q 531 763 494 763 q 599 776 567 763 q 655 813 631 789 q 693 868 679 836 q 707 938 707 900 q 693 1006 707 974 q 655 1061 679 1038 q 599 1098 631 1085 q 531 1111 567 1111 q 463 1098 494 1111 q 407 1061 431 1085 q 370 1006 383 1038 q 357 938 357 974 m 446 936 q 471 998 446 972 q 532 1024 496 1024 q 593 998 568 1024 q 618 936 618 972 q 593 875 618 900 q 532 850 568 850 q 471 875 496 850 q 446 936 446 900 z "},"Æ":{"ha":1485,"x_min":24,"x_max":1361,"o":"m 1361 135 l 890 135 l 890 313 l 1222 313 l 1222 435 l 890 435 l 890 594 l 1354 594 l 1354 717 l 622 717 l 24 0 l 214 0 l 360 178 l 728 178 l 728 0 l 1361 0 l 1361 135 m 728 308 l 456 308 l 703 608 l 728 608 l 728 308 z "},"Ç":{"ha":1113,"x_min":168,"x_max":951,"o":"m 785 589 l 785 453 l 951 479 l 951 547 q 942 631 951 597 q 913 683 933 664 q 858 709 892 701 q 774 717 824 717 l 346 717 q 262 709 296 717 q 207 683 228 701 q 177 631 186 664 q 168 547 168 597 l 168 169 q 177 86 168 119 q 207 34 186 53 q 262 8 228 15 q 346 0 296 0 l 774 0 q 858 8 824 0 q 913 34 892 15 q 942 86 933 53 q 951 169 951 119 l 951 254 l 785 289 l 785 135 l 335 135 l 335 589 l 785 589 m 404 -294 q 510 -317 463 -310 q 589 -324 557 -324 q 715 -290 672 -324 q 758 -194 758 -256 q 599 -64 758 -64 l 588 -64 l 588 0 l 526 0 l 526 -139 q 540 -138 533 -139 q 554 -137 547 -137 q 627 -150 603 -137 q 651 -192 651 -162 q 578 -243 651 -243 q 404 -214 517 -243 l 404 -294 z "},"È":{"ha":1049,"x_min":183,"x_max":924,"o":"m 183 0 l 924 0 l 924 135 l 350 135 l 350 313 l 681 313 l 681 435 l 350 435 l 350 594 l 917 594 l 917 717 l 183 717 l 183 0 m 654 793 l 515 1028 l 365 1028 l 565 793 l 654 793 z "},"É":{"ha":1049,"x_min":183,"x_max":924,"o":"m 183 0 l 924 0 l 924 135 l 350 135 l 350 313 l 681 313 l 681 435 l 350 435 l 350 594 l 917 594 l 917 717 l 183 717 l 183 0 m 454 793 l 543 793 l 743 1028 l 593 1028 l 454 793 z "},"Ê":{"ha":1049,"x_min":183,"x_max":924,"o":"m 183 0 l 924 0 l 924 135 l 350 135 l 350 313 l 681 313 l 681 435 l 350 435 l 350 594 l 917 594 l 917 717 l 183 717 l 183 0 m 353 792 l 440 792 l 554 935 l 667 792 l 756 792 l 628 1028 l 481 1028 l 353 792 z "},"Ë":{"ha":1049,"x_min":183,"x_max":924,"o":"m 183 0 l 924 0 l 924 135 l 350 135 l 350 313 l 681 313 l 681 435 l 350 435 l 350 594 l 917 594 l 917 717 l 183 717 l 183 0 m 369 825 l 508 825 l 508 981 l 369 981 l 369 825 m 600 825 l 739 825 l 739 981 l 600 981 l 600 825 z "},"Ì":{"ha":533,"x_min":79,"x_max":368,"o":"m 183 0 l 350 0 l 350 717 l 183 717 l 183 0 m 368 793 l 229 1028 l 79 1028 l 279 793 l 368 793 z "},"Í":{"ha":533,"x_min":168,"x_max":457,"o":"m 183 0 l 350 0 l 350 717 l 183 717 l 183 0 m 168 793 l 257 793 l 457 1028 l 307 1028 l 168 793 z "},"Î":{"ha":533,"x_min":67,"x_max":469,"o":"m 183 0 l 350 0 l 350 717 l 183 717 l 183 0 m 67 792 l 154 792 l 268 935 l 381 792 l 469 792 l 342 1028 l 194 1028 l 67 792 z "},"Ï":{"ha":533,"x_min":83,"x_max":453,"o":"m 183 0 l 350 0 l 350 717 l 183 717 l 183 0 m 83 825 l 222 825 l 222 981 l 83 981 l 83 825 m 314 825 l 453 825 l 453 981 l 314 981 l 314 825 z "},"Ð":{"ha":1176,"x_min":50,"x_max":1054,"o":"m 183 0 l 601 0 q 770 12 697 0 q 896 56 843 24 q 1013 181 971 101 q 1054 363 1054 261 q 951 624 1054 531 q 644 717 847 717 l 183 717 l 183 442 l 50 442 l 50 310 l 183 310 l 183 0 m 350 135 l 350 310 l 617 310 l 617 442 l 350 442 l 350 589 l 646 589 q 823 532 764 589 q 882 365 882 475 q 862 254 882 299 q 802 183 842 210 q 703 146 763 157 q 565 135 644 135 l 350 135 z "},"Ñ":{"ha":1207,"x_min":182,"x_max":1025,"o":"m 182 0 l 332 0 l 332 388 q 331 431 332 403 q 325 501 329 460 q 355 471 340 485 q 385 443 369 457 l 911 0 l 1025 0 l 1025 717 l 875 717 l 875 340 q 877 292 875 324 q 882 217 879 261 q 842 258 863 239 q 800 294 822 276 l 296 717 l 182 717 l 182 0 m 808 985 l 740 985 q 718 947 733 960 q 682 935 703 935 q 647 939 664 935 l 588 956 q 531 965 557 965 q 400 817 426 965 l 468 817 q 526 863 482 863 q 569 856 544 863 l 626 839 q 674 832 651 832 q 761 869 729 832 q 808 985 793 906 z "},"Ò":{"ha":1219,"x_min":168,"x_max":1051,"o":"m 335 135 l 335 589 l 885 589 l 885 135 l 335 135 m 168 547 l 168 169 q 177 86 168 119 q 207 34 186 53 q 262 8 228 15 q 346 0 296 0 l 874 0 q 958 8 924 0 q 1013 34 992 15 q 1042 86 1033 53 q 1051 169 1051 119 l 1051 547 q 1042 631 1051 597 q 1013 683 1033 664 q 958 709 992 701 q 874 717 924 717 l 346 717 q 262 709 296 717 q 207 683 228 701 q 177 631 186 664 q 168 547 168 597 m 710 793 l 571 1028 l 421 1028 l 621 793 l 710 793 z "},"Ó":{"ha":1219,"x_min":168,"x_max":1051,"o":"m 335 135 l 335 589 l 885 589 l 885 135 l 335 135 m 168 547 l 168 169 q 177 86 168 119 q 207 34 186 53 q 262 8 228 15 q 346 0 296 0 l 874 0 q 958 8 924 0 q 1013 34 992 15 q 1042 86 1033 53 q 1051 169 1051 119 l 1051 547 q 1042 631 1051 597 q 1013 683 1033 664 q 958 709 992 701 q 874 717 924 717 l 346 717 q 262 709 296 717 q 207 683 228 701 q 177 631 186 664 q 168 547 168 597 m 510 793 l 599 793 l 799 1028 l 649 1028 l 510 793 z "},"Ô":{"ha":1219,"x_min":168,"x_max":1051,"o":"m 335 135 l 335 589 l 885 589 l 885 135 l 335 135 m 168 547 l 168 169 q 177 86 168 119 q 207 34 186 53 q 262 8 228 15 q 346 0 296 0 l 874 0 q 958 8 924 0 q 1013 34 992 15 q 1042 86 1033 53 q 1051 169 1051 119 l 1051 547 q 1042 631 1051 597 q 1013 683 1033 664 q 958 709 992 701 q 874 717 924 717 l 346 717 q 262 709 296 717 q 207 683 228 701 q 177 631 186 664 q 168 547 168 597 m 408 792 l 496 792 l 610 935 l 722 792 l 811 792 l 683 1028 l 536 1028 l 408 792 z "},"Õ":{"ha":1219,"x_min":168,"x_max":1051,"o":"m 335 135 l 335 589 l 885 589 l 885 135 l 335 135 m 168 547 l 168 169 q 177 86 168 119 q 207 34 186 53 q 262 8 228 15 q 346 0 296 0 l 874 0 q 958 8 924 0 q 1013 34 992 15 q 1042 86 1033 53 q 1051 169 1051 119 l 1051 547 q 1042 631 1051 597 q 1013 683 1033 664 q 958 709 992 701 q 874 717 924 717 l 346 717 q 262 709 296 717 q 207 683 228 701 q 177 631 186 664 q 168 547 168 597 m 814 985 l 746 985 q 724 947 739 960 q 688 935 708 935 q 653 939 669 935 l 593 956 q 536 965 563 965 q 406 817 432 965 l 474 817 q 532 863 488 863 q 575 856 550 863 l 632 839 q 679 832 657 832 q 767 869 735 832 q 814 985 799 906 z "},"Ö":{"ha":1219,"x_min":168,"x_max":1051,"o":"m 335 135 l 335 589 l 885 589 l 885 135 l 335 135 m 168 547 l 168 169 q 177 86 168 119 q 207 34 186 53 q 262 8 228 15 q 346 0 296 0 l 874 0 q 958 8 924 0 q 1013 34 992 15 q 1042 86 1033 53 q 1051 169 1051 119 l 1051 547 q 1042 631 1051 597 q 1013 683 1033 664 q 958 709 992 701 q 874 717 924 717 l 346 717 q 262 709 296 717 q 207 683 228 701 q 177 631 186 664 q 168 547 168 597 m 425 825 l 564 825 l 564 981 l 425 981 l 425 825 m 656 825 l 794 825 l 794 981 l 656 981 l 656 825 z "},"×":{"ha":1157,"x_min":199,"x_max":968,"o":"m 583 481 l 265 799 l 199 732 l 517 414 l 199 96 l 265 31 l 583 347 l 901 31 l 968 96 l 650 414 l 968 732 l 901 799 l 583 481 z "},"Ø":{"ha":1219,"x_min":165,"x_max":1054,"o":"m 885 589 l 885 135 l 503 135 l 819 589 l 885 589 m 168 547 l 168 169 q 194 47 168 86 q 290 3 219 8 l 165 -178 l 303 -178 l 428 0 l 874 0 q 958 8 924 0 q 1013 34 992 15 q 1042 86 1033 53 q 1051 169 1051 119 l 1051 547 q 1026 669 1051 631 q 928 715 1000 708 l 1054 894 l 917 894 l 789 717 l 346 717 q 262 709 296 717 q 207 683 228 701 q 177 631 186 664 q 168 547 168 597 m 335 135 l 335 589 l 717 589 l 401 135 l 335 135 z "},"Ù":{"ha":1175,"x_min":183,"x_max":992,"o":"m 350 717 l 183 717 l 183 169 q 192 86 183 119 q 222 34 201 53 q 277 8 243 15 q 361 0 311 0 l 814 0 q 898 8 864 0 q 953 34 932 15 q 983 86 974 53 q 992 169 992 119 l 992 717 l 825 717 l 825 135 l 350 135 l 350 717 m 688 793 l 549 1028 l 399 1028 l 599 793 l 688 793 z "},"Ú":{"ha":1175,"x_min":183,"x_max":992,"o":"m 350 717 l 183 717 l 183 169 q 192 86 183 119 q 222 34 201 53 q 277 8 243 15 q 361 0 311 0 l 814 0 q 898 8 864 0 q 953 34 932 15 q 983 86 974 53 q 992 169 992 119 l 992 717 l 825 717 l 825 135 l 350 135 l 350 717 m 488 793 l 576 793 l 776 1028 l 626 1028 l 488 793 z "},"Û":{"ha":1175,"x_min":183,"x_max":992,"o":"m 350 717 l 183 717 l 183 169 q 192 86 183 119 q 222 34 201 53 q 277 8 243 15 q 361 0 311 0 l 814 0 q 898 8 864 0 q 953 34 932 15 q 983 86 974 53 q 992 169 992 119 l 992 717 l 825 717 l 825 135 l 350 135 l 350 717 m 386 792 l 474 792 l 588 935 l 700 792 l 789 792 l 661 1028 l 514 1028 l 386 792 z "},"Ü":{"ha":1175,"x_min":183,"x_max":992,"o":"m 350 717 l 183 717 l 183 169 q 192 86 183 119 q 222 34 201 53 q 277 8 243 15 q 361 0 311 0 l 814 0 q 898 8 864 0 q 953 34 932 15 q 983 86 974 53 q 992 169 992 119 l 992 717 l 825 717 l 825 135 l 350 135 l 350 717 m 403 825 l 542 825 l 542 981 l 403 981 l 403 825 m 633 825 l 772 825 l 772 981 l 633 981 l 633 825 z "},"Ý":{"ha":933,"x_min":11,"x_max":922,"o":"m 383 0 l 551 0 l 551 325 l 922 717 l 726 717 l 479 442 l 233 717 l 11 717 l 383 321 l 383 0 m 367 793 l 456 793 l 656 1028 l 506 1028 l 367 793 z "},"Þ":{"ha":1032,"x_min":183,"x_max":958,"o":"m 183 717 l 183 0 l 347 0 l 347 153 l 797 153 q 919 185 881 153 q 958 292 958 217 l 958 451 q 919 558 958 526 q 797 590 881 590 l 347 590 l 347 717 l 183 717 m 347 467 l 722 467 q 779 456 761 467 q 797 410 797 446 l 797 333 q 779 287 797 297 q 722 276 761 276 l 347 276 l 347 467 z "},"ß":{"ha":1842,"x_min":115,"x_max":1725,"o":"m 674 482 l 674 419 l 797 446 l 797 460 q 760 562 797 536 q 643 588 724 588 l 294 588 q 222 581 251 588 q 174 560 192 575 q 148 517 156 544 q 140 449 140 490 l 140 383 q 148 315 140 342 q 174 272 156 288 q 222 251 192 257 q 294 244 251 244 l 675 244 l 675 110 l 243 110 l 243 179 l 115 156 l 115 139 q 123 71 115 97 q 149 28 131 44 q 196 6 167 13 q 269 0 225 0 l 651 0 q 724 6 694 0 q 772 28 754 13 q 797 71 789 44 q 804 139 804 97 l 804 219 q 797 288 804 261 q 772 331 789 315 q 724 352 754 346 q 651 358 694 358 l 269 358 l 269 482 l 674 482 m 1594 482 l 1594 419 l 1718 446 l 1718 460 q 1681 562 1718 536 q 1564 588 1644 588 l 1215 588 q 1142 581 1172 588 q 1094 560 1113 575 q 1069 517 1076 544 q 1061 449 1061 490 l 1061 383 q 1069 315 1061 342 q 1094 272 1076 288 q 1142 251 1113 257 q 1215 244 1172 244 l 1596 244 l 1596 110 l 1164 110 l 1164 179 l 1036 156 l 1036 139 q 1044 71 1036 97 q 1069 28 1051 44 q 1117 6 1088 13 q 1190 0 1146 0 l 1572 0 q 1645 6 1615 0 q 1692 28 1675 13 q 1717 71 1710 44 q 1725 139 1725 97 l 1725 219 q 1717 288 1725 261 q 1692 331 1710 315 q 1645 352 1675 346 q 1572 358 1615 358 l 1190 358 l 1190 482 l 1594 482 z "},"à":{"ha":897,"x_min":42,"x_max":882,"o":"m 319 236 l 451 481 l 589 236 l 319 236 m 42 0 l 185 0 l 258 129 l 647 129 l 721 0 l 882 0 l 528 588 l 390 588 l 42 0 m 549 664 l 410 899 l 260 899 l 460 664 l 549 664 z "},"á":{"ha":897,"x_min":42,"x_max":882,"o":"m 319 236 l 451 481 l 589 236 l 319 236 m 42 0 l 185 0 l 258 129 l 647 129 l 721 0 l 882 0 l 528 588 l 390 588 l 42 0 m 349 664 l 438 664 l 638 899 l 488 899 l 349 664 z "},"â":{"ha":897,"x_min":42,"x_max":882,"o":"m 319 236 l 451 481 l 589 236 l 319 236 m 42 0 l 185 0 l 258 129 l 647 129 l 721 0 l 882 0 l 528 588 l 390 588 l 42 0 m 247 663 l 335 663 l 449 806 l 561 663 l 650 663 l 522 899 l 375 899 l 247 663 z "},"ã":{"ha":897,"x_min":42,"x_max":882,"o":"m 319 236 l 451 481 l 589 236 l 319 236 m 42 0 l 185 0 l 258 129 l 647 129 l 721 0 l 882 0 l 528 588 l 390 588 l 42 0 m 653 856 l 585 856 q 563 818 578 831 q 526 806 547 806 q 492 810 508 806 l 432 826 q 375 836 401 836 q 244 688 271 836 l 313 688 q 371 733 326 733 q 414 726 389 733 l 471 710 q 518 703 496 703 q 606 740 574 703 q 653 856 638 776 z "},"ä":{"ha":897,"x_min":42,"x_max":882,"o":"m 319 236 l 451 481 l 589 236 l 319 236 m 42 0 l 185 0 l 258 129 l 647 129 l 721 0 l 882 0 l 528 588 l 390 588 l 42 0 m 264 696 l 403 696 l 403 851 l 264 851 l 264 696 m 494 696 l 633 696 l 633 851 l 494 851 l 494 696 z "},"å":{"ha":897,"x_min":42,"x_max":882,"o":"m 319 236 l 451 481 l 589 236 l 319 236 m 42 0 l 185 0 l 258 129 l 647 129 l 721 0 l 882 0 l 528 588 l 390 588 l 42 0 m 275 825 q 288 756 275 788 q 325 700 301 724 q 381 663 349 676 q 449 650 413 650 q 517 663 485 650 q 572 700 549 676 q 610 756 596 724 q 624 825 624 788 q 610 893 624 861 q 572 949 596 925 q 517 986 549 972 q 449 1000 485 1000 q 381 986 413 1000 q 325 949 349 972 q 288 893 301 925 q 275 825 275 861 m 363 825 q 388 886 363 861 q 450 911 414 911 q 511 886 486 911 q 536 825 536 861 q 511 763 536 789 q 450 738 486 738 q 388 763 414 738 q 363 825 363 789 z "},"æ":{"ha":1247,"x_min":21,"x_max":1171,"o":"m 631 253 l 390 253 l 604 499 l 631 499 l 631 253 m 1171 111 l 767 111 l 767 254 l 1051 254 l 1051 356 l 767 356 l 767 483 l 1165 483 l 1165 588 l 536 588 l 21 0 l 183 0 l 310 146 l 631 146 l 631 0 l 1171 0 l 1171 111 z "},"ç":{"ha":894,"x_min":117,"x_max":790,"o":"m 646 479 l 646 371 l 790 392 l 790 449 q 783 517 790 490 q 757 560 775 544 q 709 581 739 575 q 636 588 679 588 l 269 588 q 196 581 225 588 q 149 559 167 575 q 124 517 132 543 q 117 449 117 490 l 117 139 q 124 72 117 99 q 149 28 131 44 q 196 6 167 13 q 269 0 225 0 l 636 0 q 709 6 679 0 q 757 28 739 13 q 783 71 775 44 q 790 139 790 97 l 790 208 l 646 238 l 646 113 l 260 113 l 260 479 l 646 479 m 299 -294 q 404 -317 357 -310 q 483 -324 451 -324 q 610 -290 567 -324 q 653 -194 653 -256 q 493 -64 653 -64 l 482 -64 l 482 0 l 421 0 l 421 -139 q 435 -138 428 -139 q 449 -137 442 -137 q 522 -150 497 -137 q 546 -192 546 -162 q 472 -243 546 -243 q 299 -214 411 -243 l 299 -294 z "},"è":{"ha":844,"x_min":131,"x_max":768,"o":"m 131 0 l 768 0 l 768 110 l 275 110 l 275 254 l 558 254 l 558 356 l 275 356 l 275 483 l 761 483 l 761 588 l 131 588 l 131 0 m 544 664 l 406 899 l 256 899 l 456 664 l 544 664 z "},"é":{"ha":844,"x_min":131,"x_max":768,"o":"m 131 0 l 768 0 l 768 110 l 275 110 l 275 254 l 558 254 l 558 356 l 275 356 l 275 483 l 761 483 l 761 588 l 131 588 l 131 0 m 344 664 l 433 664 l 633 899 l 483 899 l 344 664 z "},"ê":{"ha":844,"x_min":131,"x_max":768,"o":"m 131 0 l 768 0 l 768 110 l 275 110 l 275 254 l 558 254 l 558 356 l 275 356 l 275 483 l 761 483 l 761 588 l 131 588 l 131 0 m 243 663 l 331 663 l 444 806 l 557 663 l 646 663 l 518 899 l 371 899 l 243 663 z "},"ë":{"ha":844,"x_min":131,"x_max":768,"o":"m 131 0 l 768 0 l 768 110 l 275 110 l 275 254 l 558 254 l 558 356 l 275 356 l 275 483 l 761 483 l 761 588 l 131 588 l 131 0 m 260 696 l 399 696 l 399 851 l 260 851 l 260 696 m 490 696 l 629 696 l 629 851 l 490 851 l 490 696 z "},"ì":{"ha":404,"x_min":15,"x_max":304,"o":"m 131 0 l 274 0 l 274 588 l 131 588 l 131 0 m 304 664 l 165 899 l 15 899 l 215 664 l 304 664 z "},"í":{"ha":404,"x_min":104,"x_max":393,"o":"m 131 0 l 274 0 l 274 588 l 131 588 l 131 0 m 104 664 l 193 664 l 393 899 l 243 899 l 104 664 z "},"î":{"ha":404,"x_min":3,"x_max":406,"o":"m 131 0 l 274 0 l 274 588 l 131 588 l 131 0 m 3 663 l 90 663 l 204 806 l 317 663 l 406 663 l 278 899 l 131 899 l 3 663 z "},"ï":{"ha":404,"x_min":19,"x_max":389,"o":"m 131 0 l 274 0 l 274 588 l 131 588 l 131 0 m 19 696 l 158 696 l 158 851 l 19 851 l 19 696 m 250 696 l 389 696 l 389 851 l 250 851 l 250 696 z "},"ñ":{"ha":989,"x_min":131,"x_max":857,"o":"m 131 0 l 261 0 l 261 396 l 758 0 l 857 0 l 857 588 l 728 588 l 728 197 l 229 588 l 131 588 l 131 0 m 699 856 l 631 856 q 608 818 624 831 q 572 806 593 806 q 538 810 554 806 l 478 826 q 421 836 447 836 q 290 688 317 836 l 358 688 q 417 733 372 733 q 460 726 435 733 l 517 710 q 564 703 542 703 q 651 740 619 703 q 699 856 683 776 z "},"ò":{"ha":993,"x_min":117,"x_max":876,"o":"m 117 449 l 117 139 q 124 70 117 97 q 149 28 132 43 q 196 6 167 13 q 269 0 225 0 l 724 0 q 796 6 767 0 q 843 28 825 13 q 869 70 861 43 q 876 139 876 97 l 876 449 q 869 517 876 490 q 843 560 861 544 q 796 582 825 576 q 724 588 767 588 l 269 588 q 197 582 226 588 q 150 560 168 576 q 124 517 132 544 q 117 449 117 490 m 260 113 l 260 479 l 733 479 l 733 113 l 260 113 m 597 664 l 458 899 l 308 899 l 508 664 l 597 664 z "},"ó":{"ha":993,"x_min":117,"x_max":876,"o":"m 117 449 l 117 139 q 124 70 117 97 q 149 28 132 43 q 196 6 167 13 q 269 0 225 0 l 724 0 q 796 6 767 0 q 843 28 825 13 q 869 70 861 43 q 876 139 876 97 l 876 449 q 869 517 876 490 q 843 560 861 544 q 796 582 825 576 q 724 588 767 588 l 269 588 q 197 582 226 588 q 150 560 168 576 q 124 517 132 544 q 117 449 117 490 m 260 113 l 260 479 l 733 479 l 733 113 l 260 113 m 397 664 l 486 664 l 686 899 l 536 899 l 397 664 z "},"ô":{"ha":993,"x_min":117,"x_max":876,"o":"m 117 449 l 117 139 q 124 70 117 97 q 149 28 132 43 q 196 6 167 13 q 269 0 225 0 l 724 0 q 796 6 767 0 q 843 28 825 13 q 869 70 861 43 q 876 139 876 97 l 876 449 q 869 517 876 490 q 843 560 861 544 q 796 582 825 576 q 724 588 767 588 l 269 588 q 197 582 226 588 q 150 560 168 576 q 124 517 132 544 q 117 449 117 490 m 260 113 l 260 479 l 733 479 l 733 113 l 260 113 m 296 663 l 383 663 l 497 806 l 610 663 l 699 663 l 571 899 l 424 899 l 296 663 z "},"õ":{"ha":993,"x_min":117,"x_max":876,"o":"m 117 449 l 117 139 q 124 70 117 97 q 149 28 132 43 q 196 6 167 13 q 269 0 225 0 l 724 0 q 796 6 767 0 q 843 28 825 13 q 869 70 861 43 q 876 139 876 97 l 876 449 q 869 517 876 490 q 843 560 861 544 q 796 582 825 576 q 724 588 767 588 l 269 588 q 197 582 226 588 q 150 560 168 576 q 124 517 132 544 q 117 449 117 490 m 260 113 l 260 479 l 733 479 l 733 113 l 260 113 m 701 856 l 633 856 q 611 818 626 831 q 575 806 596 806 q 540 810 557 806 l 481 826 q 424 836 450 836 q 293 688 319 836 l 361 688 q 419 733 375 733 q 463 726 438 733 l 519 710 q 567 703 544 703 q 654 740 622 703 q 701 856 686 776 z "},"ö":{"ha":993,"x_min":117,"x_max":876,"o":"m 117 449 l 117 139 q 124 70 117 97 q 149 28 132 43 q 196 6 167 13 q 269 0 225 0 l 724 0 q 796 6 767 0 q 843 28 825 13 q 869 70 861 43 q 876 139 876 97 l 876 449 q 869 517 876 490 q 843 560 861 544 q 796 582 825 576 q 724 588 767 588 l 269 588 q 197 582 226 588 q 150 560 168 576 q 124 517 132 544 q 117 449 117 490 m 260 113 l 260 479 l 733 479 l 733 113 l 260 113 m 313 696 l 451 696 l 451 851 l 313 851 l 313 696 m 543 696 l 682 696 l 682 851 l 543 851 l 543 696 z "},"÷":{"ha":1157,"x_min":172,"x_max":985,"o":"m 579 750 q 519 725 544 750 q 494 664 494 700 q 519 603 494 628 q 579 579 543 579 q 640 604 615 579 q 664 664 664 629 q 639 725 664 700 q 579 750 614 750 m 985 461 l 172 461 l 172 367 l 985 367 l 985 461 m 579 249 q 519 224 544 249 q 494 164 494 200 q 519 103 494 128 q 579 79 543 79 q 640 104 615 79 q 664 164 664 129 q 639 224 664 200 q 579 249 614 249 z "},"ø":{"ha":993,"x_min":117,"x_max":881,"o":"m 260 113 l 260 479 l 588 479 l 322 113 l 260 113 m 119 449 l 119 139 q 142 39 119 71 q 225 3 165 7 l 117 -146 l 236 -146 l 343 0 l 726 0 q 800 6 771 0 q 847 28 829 13 q 872 72 865 44 q 879 139 879 99 l 879 449 q 857 549 879 517 q 772 586 835 581 l 881 733 l 763 733 l 653 588 l 272 588 q 200 581 229 588 q 153 560 171 575 q 127 517 135 544 q 119 449 119 490 m 735 479 l 735 113 l 408 113 l 674 479 l 735 479 z "},"ù":{"ha":957,"x_min":131,"x_max":826,"o":"m 274 588 l 131 588 l 131 139 q 138 71 131 97 q 163 28 146 44 q 210 6 181 13 q 283 0 239 0 l 672 0 q 745 6 715 0 q 793 28 775 13 q 819 71 811 44 q 826 139 826 97 l 826 588 l 682 588 l 682 110 l 274 110 l 274 588 m 579 664 l 440 899 l 290 899 l 490 664 l 579 664 z "},"ú":{"ha":957,"x_min":131,"x_max":826,"o":"m 274 588 l 131 588 l 131 139 q 138 71 131 97 q 163 28 146 44 q 210 6 181 13 q 283 0 239 0 l 672 0 q 745 6 715 0 q 793 28 775 13 q 819 71 811 44 q 826 139 826 97 l 826 588 l 682 588 l 682 110 l 274 110 l 274 588 m 379 664 l 468 664 l 668 899 l 518 899 l 379 664 z "},"û":{"ha":957,"x_min":131,"x_max":826,"o":"m 274 588 l 131 588 l 131 139 q 138 71 131 97 q 163 28 146 44 q 210 6 181 13 q 283 0 239 0 l 672 0 q 745 6 715 0 q 793 28 775 13 q 819 71 811 44 q 826 139 826 97 l 826 588 l 682 588 l 682 110 l 274 110 l 274 588 m 278 663 l 365 663 l 479 806 l 592 663 l 681 663 l 553 899 l 406 899 l 278 663 z "},"ü":{"ha":957,"x_min":131,"x_max":826,"o":"m 274 588 l 131 588 l 131 139 q 138 71 131 97 q 163 28 146 44 q 210 6 181 13 q 283 0 239 0 l 672 0 q 745 6 715 0 q 793 28 775 13 q 819 71 811 44 q 826 139 826 97 l 826 588 l 682 588 l 682 110 l 274 110 l 274 588 m 294 696 l 433 696 l 433 851 l 294 851 l 294 696 m 525 696 l 664 696 l 664 851 l 525 851 l 525 696 z "},"ý":{"ha":824,"x_min":32,"x_max":815,"o":"m 353 0 l 496 0 l 496 267 l 815 588 l 647 588 l 435 368 l 225 588 l 32 588 l 353 264 l 353 0 m 313 664 l 401 664 l 601 899 l 451 899 l 313 664 z "},"ÿ":{"ha":824,"x_min":32,"x_max":815,"o":"m 353 0 l 496 0 l 496 267 l 815 588 l 647 588 l 435 368 l 225 588 l 32 588 l 353 264 l 353 0 m 228 696 l 367 696 l 367 851 l 228 851 l 228 696 m 458 696 l 597 696 l 597 851 l 458 851 l 458 696 z "}}}
